<svg width="129" height="45" viewBox="0 0 129 45" fill="none" xmlns="http://www.w3.org/2000/svg">
<g clip-path="url(#clip0_196_435)">
<path d="M0 0H109C120.046 0 129 8.95431 129 20V45H20C8.95431 45 0 36.0457 0 25V0Z" fill="white"/>
<path d="M0 0H109C120.046 0 129 8.95431 129 20V45H20C8.95431 45 0 36.0457 0 25V0Z" fill="url(#paint0_linear_196_435)"/>
<path d="M22.589 27.896L23.261 26.376C23.741 26.7067 24.2637 26.9627 24.829 27.144C25.405 27.3147 25.9757 27.4053 26.541 27.416C27.1063 27.4267 27.6183 27.3627 28.077 27.224C28.5463 27.0853 28.9197 26.8773 29.197 26.6C29.4743 26.3227 29.613 25.976 29.613 25.56C29.613 25.0587 29.405 24.6853 28.989 24.44C28.5837 24.184 28.029 24.056 27.325 24.056H24.717V22.424H27.165C27.7943 22.424 28.2797 22.296 28.621 22.04C28.973 21.784 29.149 21.4373 29.149 21C29.149 20.6373 29.0317 20.3387 28.797 20.104C28.573 19.8693 28.2637 19.6933 27.869 19.576C27.485 19.4587 27.0477 19.4053 26.557 19.416C26.077 19.416 25.5757 19.4907 25.053 19.64C24.5303 19.7787 24.0343 19.9867 23.565 20.264L22.909 18.584C23.613 18.2107 24.349 17.9493 25.117 17.8C25.8957 17.6507 26.6477 17.608 27.373 17.672C28.0983 17.736 28.749 17.9013 29.325 18.168C29.9117 18.4347 30.381 18.7867 30.733 19.224C31.085 19.6507 31.261 20.1573 31.261 20.744C31.261 21.2773 31.117 21.752 30.829 22.168C30.5517 22.5733 30.1677 22.888 29.677 23.112C29.1863 23.336 28.6157 23.448 27.965 23.448L28.045 22.936C28.781 22.936 29.421 23.064 29.965 23.32C30.5197 23.5653 30.9463 23.9067 31.245 24.344C31.5543 24.7813 31.709 25.288 31.709 25.864C31.709 26.408 31.5703 26.8933 31.293 27.32C31.0157 27.736 30.637 28.088 30.157 28.376C29.677 28.6533 29.1277 28.8613 28.509 29C27.8903 29.128 27.2397 29.176 26.557 29.144C25.8743 29.112 25.1917 28.9947 24.509 28.792C23.837 28.5893 23.197 28.2907 22.589 27.896ZM39.0436 29V27.272L38.9316 26.904V23.88C38.9316 23.2933 38.7556 22.84 38.4036 22.52C38.0516 22.1893 37.5183 22.024 36.8036 22.024C36.3236 22.024 35.849 22.0987 35.3796 22.248C34.921 22.3973 34.5316 22.6053 34.2116 22.872L33.4276 21.416C33.8863 21.064 34.4303 20.8027 35.0596 20.632C35.6996 20.4507 36.361 20.36 37.0436 20.36C38.281 20.36 39.2356 20.6587 39.9076 21.256C40.5903 21.8427 40.9316 22.7547 40.9316 23.992V29H39.0436ZM36.3556 29.112C35.7156 29.112 35.1556 29.0053 34.6756 28.792C34.1956 28.568 33.8223 28.264 33.5556 27.88C33.2996 27.4853 33.1716 27.0427 33.1716 26.552C33.1716 26.072 33.2836 25.64 33.5076 25.256C33.7423 24.872 34.121 24.568 34.6436 24.344C35.1663 24.12 35.8596 24.008 36.7236 24.008H39.2036V25.336H36.8676C36.185 25.336 35.7263 25.448 35.4916 25.672C35.257 25.8853 35.1396 26.152 35.1396 26.472C35.1396 26.8347 35.2836 27.1227 35.5716 27.336C35.8596 27.5493 36.2596 27.656 36.7716 27.656C37.2623 27.656 37.6996 27.544 38.0836 27.32C38.4783 27.096 38.761 26.7653 38.9316 26.328L39.2676 27.528C39.0756 28.0293 38.729 28.4187 38.2276 28.696C37.737 28.9733 37.113 29.112 36.3556 29.112ZM43.4065 29V20.456H49.9665V22.152H44.9425L45.4065 21.704V29H43.4065ZM56.1581 29.112C55.4648 29.112 54.8301 28.952 54.2541 28.632C53.6888 28.312 53.2355 27.832 52.8941 27.192C52.5635 26.5413 52.3981 25.72 52.3981 24.728C52.3981 23.7253 52.5581 22.904 52.8781 22.264C53.2088 21.624 53.6568 21.1493 54.2221 20.84C54.7875 20.52 55.4328 20.36 56.1581 20.36C57.0008 20.36 57.7421 20.5413 58.3821 20.904C59.0328 21.2667 59.5448 21.7733 59.9181 22.424C60.3021 23.0747 60.4941 23.8427 60.4941 24.728C60.4941 25.6133 60.3021 26.3867 59.9181 27.048C59.5448 27.6987 59.0328 28.2053 58.3821 28.568C57.7421 28.9307 57.0008 29.112 56.1581 29.112ZM51.4221 32.104V20.456H53.3261V22.472L53.2621 24.744L53.4221 27.016V32.104H51.4221ZM55.9341 27.4C56.4141 27.4 56.8408 27.2933 57.2141 27.08C57.5981 26.8667 57.9021 26.5573 58.1261 26.152C58.3501 25.7467 58.4621 25.272 58.4621 24.728C58.4621 24.1733 58.3501 23.6987 58.1261 23.304C57.9021 22.8987 57.5981 22.5893 57.2141 22.376C56.8408 22.1627 56.4141 22.056 55.9341 22.056C55.4541 22.056 55.0221 22.1627 54.6381 22.376C54.2541 22.5893 53.9501 22.8987 53.7261 23.304C53.5021 23.6987 53.3901 24.1733 53.3901 24.728C53.3901 25.272 53.5021 25.7467 53.7261 26.152C53.9501 26.5573 54.2541 26.8667 54.6381 27.08C55.0221 27.2933 55.4541 27.4 55.9341 27.4ZM63.0182 32.216C62.6023 32.216 62.1863 32.1467 61.7703 32.008C61.3543 31.8693 61.0076 31.6773 60.7302 31.432L61.5303 29.96C61.7329 30.1413 61.9623 30.2853 62.2183 30.392C62.4743 30.4987 62.7356 30.552 63.0023 30.552C63.3649 30.552 63.6583 30.4613 63.8823 30.28C64.1063 30.0987 64.3143 29.7947 64.5063 29.368L65.0023 28.248L65.1623 28.008L68.3943 20.456H70.3142L66.3143 29.688C66.0476 30.328 65.7489 30.8347 65.4183 31.208C65.0983 31.5813 64.7356 31.8427 64.3303 31.992C63.9356 32.1413 63.4983 32.216 63.0182 32.216ZM64.7783 29.304L60.9223 20.456H63.0023L66.1383 27.832L64.7783 29.304ZM74.2043 29.144C73.5536 29.144 72.9083 29.0693 72.2682 28.92C71.6389 28.76 71.0683 28.536 70.5563 28.248L71.1163 26.76C71.5323 26.9947 72.0016 27.176 72.5243 27.304C73.0469 27.432 73.5696 27.496 74.0923 27.496C74.5403 27.496 74.9243 27.4533 75.2443 27.368C75.5643 27.272 75.8096 27.1333 75.9803 26.952C76.1616 26.7707 76.2523 26.5627 76.2523 26.328C76.2523 25.9867 76.1029 25.7307 75.8043 25.56C75.5163 25.3787 75.1003 25.288 74.5563 25.288H72.9083V23.944H74.3963C74.7376 23.944 75.0256 23.9067 75.2603 23.832C75.5056 23.7573 75.6923 23.6453 75.8203 23.496C75.9483 23.3467 76.0123 23.1707 76.0123 22.968C76.0123 22.7653 75.9323 22.5893 75.7723 22.44C75.6229 22.28 75.4043 22.1627 75.1163 22.088C74.8283 22.0027 74.4816 21.96 74.0763 21.96C73.6496 21.96 73.2069 22.0133 72.7483 22.12C72.3003 22.2267 71.8416 22.3813 71.3723 22.584L70.8603 21.112C71.4043 20.8667 71.9323 20.68 72.4443 20.552C72.9669 20.4133 73.4843 20.3387 73.9963 20.328C74.7749 20.296 75.4683 20.376 76.0763 20.568C76.6843 20.76 77.1643 21.0373 77.5163 21.4C77.8683 21.7627 78.0443 22.1893 78.0443 22.68C78.0443 23.0853 77.9163 23.4533 77.6603 23.784C77.4149 24.104 77.0736 24.3547 76.6363 24.536C76.2096 24.7173 75.7189 24.808 75.1643 24.808L75.2283 24.376C76.1776 24.376 76.9243 24.568 77.4683 24.952C78.0123 25.3253 78.2843 25.8373 78.2843 26.488C78.2843 27.0107 78.1083 27.4747 77.7563 27.88C77.4043 28.2747 76.9189 28.584 76.3003 28.808C75.6923 29.032 74.9936 29.144 74.2043 29.144ZM80.344 29V20.456H82.344V26.088L87.064 20.456H88.888V29H86.888V23.368L82.184 29H80.344ZM93.3544 29V21.672L93.8184 22.152H90.3464V20.456H98.3464V22.152H94.8904L95.3544 21.672V29H93.3544ZM104.085 23.272C105.184 23.272 106.021 23.5173 106.597 24.008C107.173 24.4987 107.461 25.192 107.461 26.088C107.461 27.016 107.141 27.7413 106.501 28.264C105.861 28.776 104.96 29.0267 103.797 29.016L99.7971 29V20.456H101.797V23.256L104.085 23.272ZM103.621 27.544C104.208 27.5547 104.656 27.432 104.965 27.176C105.274 26.92 105.429 26.5467 105.429 26.056C105.429 25.5653 105.274 25.2133 104.965 25C104.666 24.776 104.218 24.6587 103.621 24.648L101.797 24.632V27.528L103.621 27.544Z" fill="black"/>
</g>
<defs>
<linearGradient id="paint0_linear_196_435" x1="0" y1="23" x2="135.5" y2="23" gradientUnits="userSpaceOnUse">
<stop stop-color="#60C5FE"/>
<stop offset="1" stop-color="#D26F80"/>
</linearGradient>
<clipPath id="clip0_196_435">
<path d="M0 0H109C120.046 0 129 8.95431 129 20V45H20C8.95431 45 0 36.0457 0 25V0Z" fill="white"/>
</clipPath>
</defs>
</svg>
