<svg width="475" height="297" viewBox="0 0 475 297" fill="none" xmlns="http://www.w3.org/2000/svg">
<g clip-path="url(#clip0_153_427)">
<path d="M137 222.889H316C327.046 222.889 336 231.843 336 242.889V267.111H157C145.954 267.111 137 258.157 137 247.111V222.889Z" fill="url(#paint0_linear_153_427)"/>
<path d="M172.135 250L176.86 239.5H178.78L183.52 250H181.48L177.415 240.535H178.195L174.145 250H172.135ZM174.31 247.57L174.835 246.04H180.505L181.03 247.57H174.31ZM184.92 250V241.99H188.835C189.805 241.99 190.565 242.17 191.115 242.53C191.675 242.89 191.955 243.4 191.955 244.06C191.955 244.71 191.695 245.22 191.175 245.59C190.655 245.95 189.965 246.13 189.105 246.13L189.33 245.665C190.3 245.665 191.02 245.845 191.49 246.205C191.97 246.555 192.21 247.07 192.21 247.75C192.21 248.46 191.945 249.015 191.415 249.415C190.885 249.805 190.08 250 189 250H184.92ZM186.705 248.635H188.85C189.36 248.635 189.745 248.555 190.005 248.395C190.265 248.225 190.395 247.97 190.395 247.63C190.395 247.27 190.275 247.005 190.035 246.835C189.795 246.665 189.42 246.58 188.91 246.58H186.705V248.635ZM186.705 245.335H188.67C189.15 245.335 189.51 245.25 189.75 245.08C190 244.9 190.125 244.65 190.125 244.33C190.125 244 190 243.755 189.75 243.595C189.51 243.435 189.15 243.355 188.67 243.355H186.705V245.335ZM195.872 250V243.13L196.307 243.58H193.052V241.99H200.552V243.58H197.312L197.747 243.13V250H195.872ZM205.131 250.105C204.311 250.105 203.581 249.93 202.941 249.58C202.301 249.22 201.796 248.73 201.426 248.11C201.056 247.49 200.871 246.785 200.871 245.995C200.871 245.195 201.056 244.49 201.426 243.88C201.796 243.26 202.301 242.775 202.941 242.425C203.581 242.075 204.311 241.9 205.131 241.9C205.961 241.9 206.696 242.075 207.336 242.425C207.986 242.775 208.491 243.255 208.851 243.865C209.221 244.475 209.406 245.185 209.406 245.995C209.406 246.785 209.221 247.49 208.851 248.11C208.491 248.73 207.986 249.22 207.336 249.58C206.696 249.93 205.961 250.105 205.131 250.105ZM205.131 248.5C205.591 248.5 206.001 248.4 206.361 248.2C206.721 248 207.001 247.71 207.201 247.33C207.411 246.95 207.516 246.505 207.516 245.995C207.516 245.475 207.411 245.03 207.201 244.66C207.001 244.28 206.721 243.99 206.361 243.79C206.001 243.59 205.596 243.49 205.146 243.49C204.686 243.49 204.276 243.59 203.916 243.79C203.566 243.99 203.286 244.28 203.076 244.66C202.866 245.03 202.761 245.475 202.761 245.995C202.761 246.505 202.866 246.95 203.076 247.33C203.286 247.71 203.566 248 203.916 248.2C204.276 248.4 204.681 248.5 205.131 248.5ZM215.698 250.105C215.048 250.105 214.453 249.955 213.913 249.655C213.383 249.355 212.958 248.905 212.638 248.305C212.328 247.695 212.173 246.925 212.173 245.995C212.173 245.055 212.323 244.285 212.623 243.685C212.933 243.085 213.353 242.64 213.883 242.35C214.413 242.05 215.018 241.9 215.698 241.9C216.488 241.9 217.183 242.07 217.783 242.41C218.393 242.75 218.873 243.225 219.223 243.835C219.583 244.445 219.763 245.165 219.763 245.995C219.763 246.825 219.583 247.55 219.223 248.17C218.873 248.78 218.393 249.255 217.783 249.595C217.183 249.935 216.488 250.105 215.698 250.105ZM211.258 252.91V241.99H213.043V243.88L212.983 246.01L213.133 248.14V252.91H211.258ZM215.488 248.5C215.938 248.5 216.338 248.4 216.688 248.2C217.048 248 217.333 247.71 217.543 247.33C217.753 246.95 217.858 246.505 217.858 245.995C217.858 245.475 217.753 245.03 217.543 244.66C217.333 244.28 217.048 243.99 216.688 243.79C216.338 243.59 215.938 243.49 215.488 243.49C215.038 243.49 214.633 243.59 214.273 243.79C213.913 243.99 213.628 244.28 213.418 244.66C213.208 245.03 213.103 245.475 213.103 245.995C213.103 246.505 213.208 246.95 213.418 247.33C213.628 247.71 213.913 248 214.273 248.2C214.633 248.4 215.038 248.5 215.488 248.5ZM221.629 250V241.99H223.504V247.27L227.929 241.99H229.639V250H227.764V244.72L223.354 250H221.629ZM234.594 250.135C233.984 250.135 233.379 250.065 232.779 249.925C232.189 249.775 231.654 249.565 231.174 249.295L231.699 247.9C232.089 248.12 232.529 248.29 233.019 248.41C233.509 248.53 233.999 248.59 234.489 248.59C234.909 248.59 235.269 248.55 235.569 248.47C235.869 248.38 236.099 248.25 236.259 248.08C236.429 247.91 236.514 247.715 236.514 247.495C236.514 247.175 236.374 246.935 236.094 246.775C235.824 246.605 235.434 246.52 234.924 246.52H233.379V245.26H234.774C235.094 245.26 235.364 245.225 235.584 245.155C235.814 245.085 235.989 244.98 236.109 244.84C236.229 244.7 236.289 244.535 236.289 244.345C236.289 244.155 236.214 243.99 236.064 243.85C235.924 243.7 235.719 243.59 235.449 243.52C235.179 243.44 234.854 243.4 234.474 243.4C234.074 243.4 233.659 243.45 233.229 243.55C232.809 243.65 232.379 243.795 231.939 243.985L231.459 242.605C231.969 242.375 232.464 242.2 232.944 242.08C233.434 241.95 233.919 241.88 234.399 241.87C235.129 241.84 235.779 241.915 236.349 242.095C236.919 242.275 237.369 242.535 237.699 242.875C238.029 243.215 238.194 243.615 238.194 244.075C238.194 244.455 238.074 244.8 237.834 245.11C237.604 245.41 237.284 245.645 236.874 245.815C236.474 245.985 236.014 246.07 235.494 246.07L235.554 245.665C236.444 245.665 237.144 245.845 237.654 246.205C238.164 246.555 238.419 247.035 238.419 247.645C238.419 248.135 238.254 248.57 237.924 248.95C237.594 249.32 237.139 249.61 236.559 249.82C235.989 250.03 235.334 250.135 234.594 250.135ZM243.92 250.105C243.1 250.105 242.37 249.93 241.73 249.58C241.09 249.22 240.585 248.73 240.215 248.11C239.845 247.49 239.66 246.785 239.66 245.995C239.66 245.195 239.845 244.49 240.215 243.88C240.585 243.26 241.09 242.775 241.73 242.425C242.37 242.075 243.1 241.9 243.92 241.9C244.75 241.9 245.485 242.075 246.125 242.425C246.775 242.775 247.28 243.255 247.64 243.865C248.01 244.475 248.195 245.185 248.195 245.995C248.195 246.785 248.01 247.49 247.64 248.11C247.28 248.73 246.775 249.22 246.125 249.58C245.485 249.93 244.75 250.105 243.92 250.105ZM243.92 248.5C244.38 248.5 244.79 248.4 245.15 248.2C245.51 248 245.79 247.71 245.99 247.33C246.2 246.95 246.305 246.505 246.305 245.995C246.305 245.475 246.2 245.03 245.99 244.66C245.79 244.28 245.51 243.99 245.15 243.79C244.79 243.59 244.385 243.49 243.935 243.49C243.475 243.49 243.065 243.59 242.705 243.79C242.355 243.99 242.075 244.28 241.865 244.66C241.655 245.03 241.55 245.475 241.55 245.995C241.55 246.505 241.655 246.95 241.865 247.33C242.075 247.71 242.355 248 242.705 248.2C243.065 248.4 243.47 248.5 243.92 248.5ZM250.047 250V241.99H253.962C254.932 241.99 255.692 242.17 256.242 242.53C256.802 242.89 257.082 243.4 257.082 244.06C257.082 244.71 256.822 245.22 256.302 245.59C255.782 245.95 255.092 246.13 254.232 246.13L254.457 245.665C255.427 245.665 256.147 245.845 256.617 246.205C257.097 246.555 257.337 247.07 257.337 247.75C257.337 248.46 257.072 249.015 256.542 249.415C256.012 249.805 255.207 250 254.127 250H250.047ZM251.832 248.635H253.977C254.487 248.635 254.872 248.555 255.132 248.395C255.392 248.225 255.522 247.97 255.522 247.63C255.522 247.27 255.402 247.005 255.162 246.835C254.922 246.665 254.547 246.58 254.037 246.58H251.832V248.635ZM251.832 245.335H253.797C254.277 245.335 254.637 245.25 254.877 245.08C255.127 244.9 255.252 244.65 255.252 244.33C255.252 244 255.127 243.755 254.877 243.595C254.637 243.435 254.277 243.355 253.797 243.355H251.832V245.335ZM264.194 250V248.38L264.089 248.035V245.2C264.089 244.65 263.924 244.225 263.594 243.925C263.264 243.615 262.764 243.46 262.094 243.46C261.644 243.46 261.199 243.53 260.759 243.67C260.329 243.81 259.964 244.005 259.664 244.255L258.929 242.89C259.359 242.56 259.869 242.315 260.459 242.155C261.059 241.985 261.679 241.9 262.319 241.9C263.479 241.9 264.374 242.18 265.004 242.74C265.644 243.29 265.964 244.145 265.964 245.305V250H264.194ZM261.674 250.105C261.074 250.105 260.549 250.005 260.099 249.805C259.649 249.595 259.299 249.31 259.049 248.95C258.809 248.58 258.689 248.165 258.689 247.705C258.689 247.255 258.794 246.85 259.004 246.49C259.224 246.13 259.579 245.845 260.069 245.635C260.559 245.425 261.209 245.32 262.019 245.32H264.344V246.565H262.154C261.514 246.565 261.084 246.67 260.864 246.88C260.644 247.08 260.534 247.33 260.534 247.63C260.534 247.97 260.669 248.24 260.939 248.44C261.209 248.64 261.584 248.74 262.064 248.74C262.524 248.74 262.934 248.635 263.294 248.425C263.664 248.215 263.929 247.905 264.089 247.495L264.404 248.62C264.224 249.09 263.899 249.455 263.429 249.715C262.969 249.975 262.384 250.105 261.674 250.105ZM269.949 250V243.13L270.384 243.58H267.129V241.99H274.629V243.58H271.389L271.824 243.13V250H269.949ZM280.009 244.63C281.039 244.63 281.824 244.86 282.364 245.32C282.904 245.78 283.174 246.43 283.174 247.27C283.174 248.14 282.874 248.82 282.274 249.31C281.674 249.79 280.829 250.025 279.739 250.015L275.989 250V241.99H277.864V244.615L280.009 244.63ZM279.574 248.635C280.124 248.645 280.544 248.53 280.834 248.29C281.124 248.05 281.269 247.7 281.269 247.24C281.269 246.78 281.124 246.45 280.834 246.25C280.554 246.04 280.134 245.93 279.574 245.92L277.864 245.905V248.62L279.574 248.635ZM288.468 250.105C287.628 250.105 286.878 249.93 286.218 249.58C285.568 249.22 285.058 248.73 284.688 248.11C284.318 247.49 284.133 246.785 284.133 245.995C284.133 245.195 284.318 244.49 284.688 243.88C285.058 243.26 285.568 242.775 286.218 242.425C286.878 242.075 287.628 241.9 288.468 241.9C289.248 241.9 289.933 242.06 290.523 242.38C291.123 242.69 291.578 243.15 291.888 243.76L290.448 244.6C290.208 244.22 289.913 243.94 289.563 243.76C289.223 243.58 288.853 243.49 288.453 243.49C287.993 243.49 287.578 243.59 287.208 243.79C286.838 243.99 286.548 244.28 286.338 244.66C286.128 245.03 286.023 245.475 286.023 245.995C286.023 246.515 286.128 246.965 286.338 247.345C286.548 247.715 286.838 248 287.208 248.2C287.578 248.4 287.993 248.5 288.453 248.5C288.853 248.5 289.223 248.41 289.563 248.23C289.913 248.05 290.208 247.77 290.448 247.39L291.888 248.23C291.578 248.83 291.123 249.295 290.523 249.625C289.933 249.945 289.248 250.105 288.468 250.105ZM298.404 250V247.27L298.674 247.585H296.274C295.174 247.585 294.309 247.355 293.679 246.895C293.059 246.425 292.749 245.75 292.749 244.87C292.749 243.93 293.079 243.215 293.739 242.725C294.409 242.235 295.299 241.99 296.409 241.99H300.084V250H298.404ZM292.644 250L294.804 246.94H296.724L294.654 250H292.644ZM298.404 246.67V243.07L298.674 243.565H296.469C295.889 243.565 295.439 243.675 295.119 243.895C294.809 244.105 294.654 244.45 294.654 244.93C294.654 245.83 295.239 246.28 296.409 246.28H298.674L298.404 246.67Z" fill="black"/>
<circle cx="5.5" cy="190.5" r="33" stroke="#FF0000" stroke-opacity="0.35" stroke-width="3"/>
<path d="M503.5 72.0035C503.5 110.951 472.15 142.507 433.5 142.507C394.85 142.507 363.5 110.951 363.5 72.0035C363.5 33.0556 394.85 1.5 433.5 1.5C472.15 1.5 503.5 33.0556 503.5 72.0035Z" stroke="#FF0000" stroke-opacity="0.35" stroke-width="3"/>
<circle cx="396" cy="143" r="27.5" stroke="#64C3F8" stroke-opacity="0.35" stroke-width="3"/>
</g>
<defs>
<linearGradient id="paint0_linear_153_427" x1="137" y1="245" x2="406.756" y2="245" gradientUnits="userSpaceOnUse">
<stop stop-color="#5FC5FF"/>
<stop offset="1" stop-color="#FF4C4C"/>
</linearGradient>
<clipPath id="clip0_153_427">
<rect width="475" height="297" fill="white"/>
</clipPath>
</defs>
</svg>
