<svg width="255" height="67" viewBox="0 0 255 67" fill="none" xmlns="http://www.w3.org/2000/svg">
<path d="M191.665 65V58H194.795C195.582 58 196.195 58.1567 196.635 58.47C197.075 58.7767 197.295 59.22 197.295 59.8C197.295 60.3733 197.085 60.8167 196.665 61.13C196.245 61.4367 195.692 61.59 195.005 61.59L195.185 61.23C195.965 61.23 196.568 61.3867 196.995 61.7C197.422 62.0133 197.635 62.4667 197.635 63.06C197.635 63.6667 197.412 64.1433 196.965 64.49C196.518 64.83 195.858 65 194.985 65H191.665ZM192.945 64H194.945C195.398 64 195.742 63.9167 195.975 63.75C196.208 63.5767 196.325 63.3133 196.325 62.96C196.325 62.6067 196.208 62.35 195.975 62.19C195.742 62.0233 195.398 61.94 194.945 61.94H192.945V64ZM192.945 60.99H194.685C195.105 60.99 195.425 60.9067 195.645 60.74C195.865 60.5667 195.975 60.32 195.975 60C195.975 59.6667 195.865 59.4167 195.645 59.25C195.425 59.0833 195.105 59 194.685 59H192.945V60.99ZM204.366 65V59.66H205.616V65H204.366ZM201.576 61.42C202.263 61.42 202.783 61.5733 203.136 61.88C203.496 62.1867 203.676 62.62 203.676 63.18C203.676 63.76 203.476 64.2133 203.076 64.54C202.683 64.86 202.123 65.0167 201.396 65.01L198.976 65V59.66H200.226V61.41L201.576 61.42ZM201.286 64.09C201.653 64.0967 201.933 64.02 202.126 63.86C202.319 63.7 202.416 63.4667 202.416 63.16C202.416 62.8533 202.319 62.6333 202.126 62.5C201.939 62.36 201.659 62.2867 201.286 62.28L200.226 62.27V64.08L201.286 64.09ZM206.506 65L208.856 61.94L208.836 62.61L206.596 59.66H207.986L209.556 61.76H209.026L210.606 59.66H211.956L209.696 62.61L209.706 61.94L212.046 65H210.636L208.986 62.77L209.506 62.84L207.886 65H206.506ZM215.145 65.07C214.598 65.07 214.112 64.9533 213.685 64.72C213.258 64.48 212.922 64.1533 212.675 63.74C212.428 63.3267 212.305 62.8567 212.305 62.33C212.305 61.7967 212.428 61.3267 212.675 60.92C212.922 60.5067 213.258 60.1833 213.685 59.95C214.112 59.7167 214.598 59.6 215.145 59.6C215.698 59.6 216.188 59.7167 216.615 59.95C217.048 60.1833 217.385 60.5033 217.625 60.91C217.872 61.3167 217.995 61.79 217.995 62.33C217.995 62.8567 217.872 63.3267 217.625 63.74C217.385 64.1533 217.048 64.48 216.615 64.72C216.188 64.9533 215.698 65.07 215.145 65.07ZM215.145 64C215.452 64 215.725 63.9333 215.965 63.8C216.205 63.6667 216.392 63.4733 216.525 63.22C216.665 62.9667 216.735 62.67 216.735 62.33C216.735 61.9833 216.665 61.6867 216.525 61.44C216.392 61.1867 216.205 60.9933 215.965 60.86C215.725 60.7267 215.455 60.66 215.155 60.66C214.848 60.66 214.575 60.7267 214.335 60.86C214.102 60.9933 213.915 61.1867 213.775 61.44C213.635 61.6867 213.565 61.9833 213.565 62.33C213.565 62.67 213.635 62.9667 213.775 63.22C213.915 63.4733 214.102 63.6667 214.335 63.8C214.575 63.9333 214.845 64 215.145 64ZM222.831 64.42V60.72H220.781L220.751 61.58C220.738 61.8867 220.718 62.1833 220.691 62.47C220.665 62.75 220.621 63.01 220.561 63.25C220.501 63.4833 220.415 63.6767 220.301 63.83C220.188 63.9833 220.038 64.0833 219.851 64.13L218.611 63.94C218.811 63.94 218.971 63.8767 219.091 63.75C219.218 63.6167 219.315 63.4367 219.381 63.21C219.455 62.9767 219.508 62.7133 219.541 62.42C219.575 62.12 219.598 61.81 219.611 61.49L219.681 59.66H224.081V64.42H222.831ZM218.421 66.19V63.94H224.871V66.19H223.701V65H219.581V66.19H218.421Z" fill="black"/>
<path d="M210 29.8333H225.688M225.688 29.8333L218.965 36.6667M225.688 29.8333L218.965 23" stroke="black" stroke-width="2" stroke-linecap="round" stroke-linejoin="round"/>
<path d="M225.376 12.8333V10.5556C225.376 8.03959 223.369 6 220.894 6H198.482C196.007 6 194 8.03959 194 10.5556V42.4444C194 44.9605 196.007 47 198.482 47H220.894C223.369 47 225.376 44.9605 225.376 42.4444V40.1667" stroke="black" stroke-width="2" stroke-linecap="round" stroke-linejoin="round"/>
<path d="M104.21 65V58H110.4V65H109.12V58.78L109.42 59.1H105.19L105.49 58.78V65H104.21ZM115.194 65.07C114.76 65.07 114.364 64.97 114.004 64.77C113.65 64.57 113.367 64.27 113.154 63.87C112.947 63.4633 112.844 62.95 112.844 62.33C112.844 61.7033 112.944 61.19 113.144 60.79C113.35 60.39 113.63 60.0933 113.984 59.9C114.337 59.7 114.74 59.6 115.194 59.6C115.72 59.6 116.184 59.7133 116.584 59.94C116.99 60.1667 117.31 60.4833 117.544 60.89C117.784 61.2967 117.904 61.7767 117.904 62.33C117.904 62.8833 117.784 63.3667 117.544 63.78C117.31 64.1867 116.99 64.5033 116.584 64.73C116.184 64.9567 115.72 65.07 115.194 65.07ZM112.234 66.94V59.66H113.424V60.92L113.384 62.34L113.484 63.76V66.94H112.234ZM115.054 64C115.354 64 115.62 63.9333 115.854 63.8C116.094 63.6667 116.284 63.4733 116.424 63.22C116.564 62.9667 116.634 62.67 116.634 62.33C116.634 61.9833 116.564 61.6867 116.424 61.44C116.284 61.1867 116.094 60.9933 115.854 60.86C115.62 60.7267 115.354 60.66 115.054 60.66C114.754 60.66 114.484 60.7267 114.244 60.86C114.004 60.9933 113.814 61.1867 113.674 61.44C113.534 61.6867 113.464 61.9833 113.464 62.33C113.464 62.67 113.534 62.9667 113.674 63.22C113.814 63.4733 114.004 63.6667 114.244 63.8C114.484 63.9333 114.754 64 115.054 64ZM121.528 65.07C120.981 65.07 120.495 64.9533 120.068 64.72C119.641 64.48 119.305 64.1533 119.058 63.74C118.811 63.3267 118.688 62.8567 118.688 62.33C118.688 61.7967 118.811 61.3267 119.058 60.92C119.305 60.5067 119.641 60.1833 120.068 59.95C120.495 59.7167 120.981 59.6 121.528 59.6C122.081 59.6 122.571 59.7167 122.998 59.95C123.431 60.1833 123.768 60.5033 124.008 60.91C124.255 61.3167 124.378 61.79 124.378 62.33C124.378 62.8567 124.255 63.3267 124.008 63.74C123.768 64.1533 123.431 64.48 122.998 64.72C122.571 64.9533 122.081 65.07 121.528 65.07ZM121.528 64C121.835 64 122.108 63.9333 122.348 63.8C122.588 63.6667 122.775 63.4733 122.908 63.22C123.048 62.9667 123.118 62.67 123.118 62.33C123.118 61.9833 123.048 61.6867 122.908 61.44C122.775 61.1867 122.588 60.9933 122.348 60.86C122.108 60.7267 121.838 60.66 121.538 60.66C121.231 60.66 120.958 60.7267 120.718 60.86C120.485 60.9933 120.298 61.1867 120.158 61.44C120.018 61.6867 119.948 61.9833 119.948 62.33C119.948 62.67 120.018 62.9667 120.158 63.22C120.298 63.4733 120.485 63.6667 120.718 63.8C120.958 63.9333 121.228 64 121.528 64ZM129.003 65.1C128.996 65.1 128.966 65.1 128.913 65.1C128.866 65.1 128.819 65.1 128.773 65.1C128.733 65.1 128.706 65.1 128.693 65.1C127.566 65.0867 126.693 64.8433 126.073 64.37C125.453 63.89 125.143 63.2067 125.143 62.32C125.143 61.44 125.453 60.7667 126.073 60.3C126.693 59.8333 127.576 59.5933 128.723 59.58C128.736 59.58 128.763 59.58 128.803 59.58C128.849 59.58 128.893 59.58 128.933 59.58C128.979 59.58 129.006 59.58 129.013 59.58C130.166 59.58 131.063 59.8167 131.703 60.29C132.349 60.7567 132.673 61.4333 132.673 62.32C132.673 63.2133 132.349 63.9 131.703 64.38C131.063 64.86 130.163 65.1 129.003 65.1ZM128.963 64.06C129.529 64.06 129.996 63.9967 130.363 63.87C130.729 63.7367 131.003 63.5433 131.183 63.29C131.363 63.03 131.453 62.7067 131.453 62.32C131.453 61.94 131.363 61.6267 131.183 61.38C131.003 61.1267 130.729 60.94 130.363 60.82C129.996 60.6933 129.529 60.63 128.963 60.63C128.949 60.63 128.916 60.63 128.863 60.63C128.816 60.63 128.786 60.63 128.773 60.63C128.219 60.63 127.766 60.6967 127.413 60.83C127.059 60.9567 126.796 61.1433 126.623 61.39C126.456 61.6367 126.373 61.9467 126.373 62.32C126.373 62.7 126.456 63.0167 126.623 63.27C126.796 63.5233 127.059 63.7167 127.413 63.85C127.773 63.9833 128.226 64.0533 128.773 64.06C128.786 64.06 128.816 64.06 128.863 64.06C128.916 64.06 128.949 64.06 128.963 64.06ZM128.313 66.94V57.58H129.493V66.94H128.313ZM133.884 65V59.66H135.134V63.18L138.084 59.66H139.224V65H137.974V61.48L135.034 65H133.884ZM140.126 64.99L140.186 63.94C140.232 63.9467 140.276 63.9533 140.316 63.96C140.356 63.9667 140.392 63.97 140.426 63.97C140.632 63.97 140.792 63.9067 140.906 63.78C141.019 63.6533 141.102 63.4833 141.156 63.27C141.216 63.05 141.256 62.8067 141.276 62.54C141.302 62.2667 141.322 61.9933 141.336 61.72L141.426 59.66H145.746V65H144.496V60.38L144.786 60.72H142.246L142.516 60.37L142.446 61.78C142.426 62.2533 142.386 62.6933 142.326 63.1C142.272 63.5 142.186 63.85 142.066 64.15C141.952 64.45 141.792 64.6833 141.586 64.85C141.386 65.0167 141.129 65.1 140.816 65.1C140.716 65.1 140.606 65.09 140.486 65.07C140.372 65.05 140.252 65.0233 140.126 64.99ZM150.109 61.42C150.796 61.42 151.319 61.5733 151.679 61.88C152.039 62.1867 152.219 62.62 152.219 63.18C152.219 63.76 152.019 64.2133 151.619 64.54C151.219 64.86 150.656 65.0167 149.929 65.01L147.429 65V59.66H148.679V61.41L150.109 61.42ZM149.819 64.09C150.186 64.0967 150.466 64.02 150.659 63.86C150.852 63.7 150.949 63.4667 150.949 63.16C150.949 62.8533 150.852 62.6333 150.659 62.5C150.472 62.36 150.192 62.2867 149.819 62.28L148.679 62.27V64.08L149.819 64.09Z" fill="black"/>
<rect x="106" y="4" width="43" height="44" rx="21.5" stroke="black" stroke-width="2"/>
<path d="M127.734 23.8521C127.588 23.8375 127.413 23.8375 127.252 23.8521C123.782 23.7354 121.025 20.8917 121.025 17.3917C121.025 13.8188 123.913 10.9167 127.5 10.9167C131.073 10.9167 133.975 13.8188 133.975 17.3917C133.961 20.8917 131.205 23.7354 127.734 23.8521Z" stroke="black" stroke-width="2" stroke-linecap="round" stroke-linejoin="round"/>
<path d="M120.442 29.2333C116.913 31.5958 116.913 35.4458 120.442 37.7937C124.452 40.4771 131.029 40.4771 135.04 37.7937C138.569 35.4312 138.569 31.5812 135.04 29.2333C131.044 26.5646 124.467 26.5646 120.442 29.2333Z" stroke="black" stroke-width="2" stroke-linecap="round" stroke-linejoin="round"/>
<path d="M32.5006 35.1165C36.7257 35.1165 40.1506 31.9226 40.1506 27.9825C40.1506 24.0424 36.7257 20.8485 32.5006 20.8485C28.2755 20.8485 24.8506 24.0424 24.8506 27.9825C24.8506 31.9226 28.2755 35.1165 32.5006 35.1165Z" stroke="black" stroke-width="2" stroke-linecap="round" stroke-linejoin="round"/>
<path d="M51.9371 24.1666L49.138 17.8635L52.9 13.7144L47.8 8.95837L43.375 12.4848L36.4724 9.83761L34.885 4.20236H29.9015L28.2902 9.91226L21.5462 12.5633L17.2 8.95837L12.1 13.7144L15.8061 17.9683L13.0499 24.2877L7 25.6044V30.3604L13.1228 31.9192L15.9652 38.2071L12.1 42.2504L17.2 47.0064L21.7675 43.5352L28.4124 46.0845L29.95 51.7624H35.05L36.5915 46.0866L43.3505 43.4763C44.4771 44.2272 47.8 47.0064 47.8 47.0064L52.9 42.2504L49.1155 38.0875L51.9154 31.7824L57.9997 30.3062L58 25.6044L51.9371 24.1666Z" stroke="black" stroke-width="2" stroke-linecap="round" stroke-linejoin="round"/>
<path d="M14.5594 57.7624H15.8594V64.7624H14.5594V57.7624ZM10.9394 64.7624H9.63941V57.7624H10.9394V64.7624ZM14.6594 61.7624H10.8294V60.6524H14.6594V61.7624ZM20.923 64.7624V63.6824L20.853 63.4524V61.5624C20.853 61.1957 20.743 60.9124 20.523 60.7124C20.303 60.5057 19.9697 60.4024 19.523 60.4024C19.223 60.4024 18.9263 60.4491 18.633 60.5424C18.3463 60.6357 18.103 60.7657 17.903 60.9324L17.413 60.0224C17.6997 59.8024 18.0397 59.6391 18.433 59.5324C18.833 59.4191 19.2463 59.3624 19.673 59.3624C20.4463 59.3624 21.043 59.5491 21.463 59.9224C21.8897 60.2891 22.103 60.8591 22.103 61.6324V64.7624H20.923ZM19.243 64.8324C18.843 64.8324 18.493 64.7657 18.193 64.6324C17.893 64.4924 17.6597 64.3024 17.493 64.0624C17.333 63.8157 17.253 63.5391 17.253 63.2324C17.253 62.9324 17.323 62.6624 17.463 62.4224C17.6097 62.1824 17.8463 61.9924 18.173 61.8524C18.4997 61.7124 18.933 61.6424 19.473 61.6424H21.023V62.4724H19.563C19.1363 62.4724 18.8497 62.5424 18.703 62.6824C18.5563 62.8157 18.483 62.9824 18.483 63.1824C18.483 63.4091 18.573 63.5891 18.753 63.7224C18.933 63.8557 19.183 63.9224 19.503 63.9224C19.8097 63.9224 20.083 63.8524 20.323 63.7124C20.5697 63.5724 20.7463 63.3657 20.853 63.0924L21.063 63.8424C20.943 64.1557 20.7263 64.3991 20.413 64.5724C20.1063 64.7457 19.7163 64.8324 19.243 64.8324ZM26.0798 64.8324C25.5198 64.8324 25.0198 64.7157 24.5798 64.4824C24.1465 64.2424 23.8065 63.9157 23.5598 63.5024C23.3131 63.0891 23.1898 62.6191 23.1898 62.0924C23.1898 61.5591 23.3131 61.0891 23.5598 60.6824C23.8065 60.2691 24.1465 59.9457 24.5798 59.7124C25.0198 59.4791 25.5198 59.3624 26.0798 59.3624C26.5998 59.3624 27.0565 59.4691 27.4498 59.6824C27.8498 59.8891 28.1531 60.1957 28.3598 60.6024L27.3998 61.1624C27.2398 60.9091 27.0431 60.7224 26.8098 60.6024C26.5831 60.4824 26.3365 60.4224 26.0698 60.4224C25.7631 60.4224 25.4865 60.4891 25.2398 60.6224C24.9931 60.7557 24.7998 60.9491 24.6598 61.2024C24.5198 61.4491 24.4498 61.7457 24.4498 62.0924C24.4498 62.4391 24.5198 62.7391 24.6598 62.9924C24.7998 63.2391 24.9931 63.4291 25.2398 63.5624C25.4865 63.6957 25.7631 63.7624 26.0698 63.7624C26.3365 63.7624 26.5831 63.7024 26.8098 63.5824C27.0431 63.4624 27.2398 63.2757 27.3998 63.0224L28.3598 63.5824C28.1531 63.9824 27.8498 64.2924 27.4498 64.5124C27.0565 64.7257 26.5998 64.8324 26.0798 64.8324ZM30.5313 64.7624V60.1824L30.8213 60.4824H28.6513V59.4224H33.6513V60.4824H31.4913L31.7813 60.1824V64.7624H30.5313ZM37.518 64.8324C37.0847 64.8324 36.688 64.7324 36.328 64.5324C35.9747 64.3324 35.6913 64.0324 35.478 63.6324C35.2713 63.2257 35.168 62.7124 35.168 62.0924C35.168 61.4657 35.268 60.9524 35.468 60.5524C35.6747 60.1524 35.9547 59.8557 36.308 59.6624C36.6613 59.4624 37.0647 59.3624 37.518 59.3624C38.0447 59.3624 38.508 59.4757 38.908 59.7024C39.3147 59.9291 39.6347 60.2457 39.868 60.6524C40.108 61.0591 40.228 61.5391 40.228 62.0924C40.228 62.6457 40.108 63.1291 39.868 63.5424C39.6347 63.9491 39.3147 64.2657 38.908 64.4924C38.508 64.7191 38.0447 64.8324 37.518 64.8324ZM34.558 66.7024V59.4224H35.748V60.6824L35.708 62.1024L35.808 63.5224V66.7024H34.558ZM37.378 63.7624C37.678 63.7624 37.9447 63.6957 38.178 63.5624C38.418 63.4291 38.608 63.2357 38.748 62.9824C38.888 62.7291 38.958 62.4324 38.958 62.0924C38.958 61.7457 38.888 61.4491 38.748 61.2024C38.608 60.9491 38.418 60.7557 38.178 60.6224C37.9447 60.4891 37.678 60.4224 37.378 60.4224C37.078 60.4224 36.808 60.4891 36.568 60.6224C36.328 60.7557 36.138 60.9491 35.998 61.2024C35.858 61.4491 35.788 61.7457 35.788 62.0924C35.788 62.4324 35.858 62.7291 35.998 62.9824C36.138 63.2357 36.328 63.4291 36.568 63.5624C36.808 63.6957 37.078 63.7624 37.378 63.7624ZM43.8521 64.8324C43.3054 64.8324 42.8187 64.7157 42.3921 64.4824C41.9654 64.2424 41.6287 63.9157 41.3821 63.5024C41.1354 63.0891 41.0121 62.6191 41.0121 62.0924C41.0121 61.5591 41.1354 61.0891 41.3821 60.6824C41.6287 60.2691 41.9654 59.9457 42.3921 59.7124C42.8187 59.4791 43.3054 59.3624 43.8521 59.3624C44.4054 59.3624 44.8954 59.4791 45.3221 59.7124C45.7554 59.9457 46.0921 60.2657 46.3321 60.6724C46.5787 61.0791 46.7021 61.5524 46.7021 62.0924C46.7021 62.6191 46.5787 63.0891 46.3321 63.5024C46.0921 63.9157 45.7554 64.2424 45.3221 64.4824C44.8954 64.7157 44.4054 64.8324 43.8521 64.8324ZM43.8521 63.7624C44.1587 63.7624 44.4321 63.6957 44.6721 63.5624C44.9121 63.4291 45.0987 63.2357 45.2321 62.9824C45.3721 62.7291 45.4421 62.4324 45.4421 62.0924C45.4421 61.7457 45.3721 61.4491 45.2321 61.2024C45.0987 60.9491 44.9121 60.7557 44.6721 60.6224C44.4321 60.4891 44.1621 60.4224 43.8621 60.4224C43.5554 60.4224 43.2821 60.4891 43.0421 60.6224C42.8087 60.7557 42.6221 60.9491 42.4821 61.2024C42.3421 61.4491 42.2721 61.7457 42.2721 62.0924C42.2721 62.4324 42.3421 62.7291 42.4821 62.9824C42.6221 63.2357 42.8087 63.4291 43.0421 63.5624C43.2821 63.6957 43.5521 63.7624 43.8521 63.7624ZM47.9369 64.7624V59.4224H49.1869V62.9424L52.1369 59.4224H53.2769V64.7624H52.0269V61.2424L49.0869 64.7624H47.9369ZM50.5269 58.7924C49.9936 58.7924 49.5836 58.6691 49.2969 58.4224C49.0102 58.1691 48.8636 57.8024 48.8569 57.3224H49.6869C49.6936 57.5624 49.7669 57.7524 49.9069 57.8924C50.0536 58.0324 50.2569 58.1024 50.5169 58.1024C50.7702 58.1024 50.9702 58.0324 51.1169 57.8924C51.2702 57.7524 51.3502 57.5624 51.3569 57.3224H52.2069C52.2002 57.8024 52.0502 58.1691 51.7569 58.4224C51.4702 58.6691 51.0602 58.7924 50.5269 58.7924ZM58.7884 64.7624L56.8584 62.2024L57.8784 61.5724L60.2584 64.7624H58.7884ZM54.9584 64.7624V59.4224H56.2084V64.7624H54.9584ZM55.8384 62.6224V61.5824H57.6484V62.6224H55.8384ZM57.9984 62.2424L56.8284 62.1024L58.7884 59.4224H60.1284L57.9984 62.2424ZM61.14 64.7624V59.4224H62.39V62.9424L65.34 59.4224H66.48V64.7624H65.23V61.2424L62.29 64.7624H61.14Z" fill="black"/>
</svg>
