<svg width="475" height="92" viewBox="0 0 475 92" fill="none" xmlns="http://www.w3.org/2000/svg">
<g clip-path="url(#clip0_180_978)">
<rect width="475" height="92" fill="white" fill-opacity="0.16"/>
<path d="M157.955 76V69H162.705L162.695 70.1H158.925L159.225 69.79L159.235 76H157.955ZM161.371 75.99L161.431 74.94C161.477 74.9467 161.521 74.9533 161.561 74.96C161.601 74.9667 161.637 74.97 161.671 74.97C161.877 74.97 162.037 74.9067 162.151 74.78C162.264 74.6533 162.347 74.4833 162.401 74.27C162.461 74.05 162.501 73.8067 162.521 73.54C162.547 73.2667 162.567 72.9933 162.581 72.72L162.671 70.66H166.991V76H165.741V71.38L166.031 71.72H163.491L163.761 71.37L163.691 72.78C163.671 73.2533 163.631 73.6933 163.571 74.1C163.517 74.5 163.431 74.85 163.311 75.15C163.197 75.45 163.037 75.6833 162.831 75.85C162.631 76.0167 162.374 76.1 162.061 76.1C161.961 76.1 161.851 76.09 161.731 76.07C161.617 76.05 161.497 76.0233 161.371 75.99ZM171.914 76V74.92L171.844 74.69V72.8C171.844 72.4333 171.734 72.15 171.514 71.95C171.294 71.7433 170.961 71.64 170.514 71.64C170.214 71.64 169.918 71.6867 169.624 71.78C169.338 71.8733 169.094 72.0033 168.894 72.17L168.404 71.26C168.691 71.04 169.031 70.8767 169.424 70.77C169.824 70.6567 170.238 70.6 170.664 70.6C171.438 70.6 172.034 70.7867 172.454 71.16C172.881 71.5267 173.094 72.0967 173.094 72.87V76H171.914ZM170.234 76.07C169.834 76.07 169.484 76.0033 169.184 75.87C168.884 75.73 168.651 75.54 168.484 75.3C168.324 75.0533 168.244 74.7767 168.244 74.47C168.244 74.17 168.314 73.9 168.454 73.66C168.601 73.42 168.838 73.23 169.164 73.09C169.491 72.95 169.924 72.88 170.464 72.88H172.014V73.71H170.554C170.128 73.71 169.841 73.78 169.694 73.92C169.548 74.0533 169.474 74.22 169.474 74.42C169.474 74.6467 169.564 74.8267 169.744 74.96C169.924 75.0933 170.174 75.16 170.494 75.16C170.801 75.16 171.074 75.09 171.314 74.95C171.561 74.81 171.738 74.6033 171.844 74.33L172.054 75.08C171.934 75.3933 171.718 75.6367 171.404 75.81C171.098 75.9833 170.708 76.07 170.234 76.07ZM174.641 76V70.66H177.251C177.898 70.66 178.404 70.78 178.771 71.02C179.144 71.26 179.331 71.6 179.331 72.04C179.331 72.4733 179.158 72.8133 178.811 73.06C178.464 73.3 178.004 73.42 177.431 73.42L177.581 73.11C178.228 73.11 178.708 73.23 179.021 73.47C179.341 73.7033 179.501 74.0467 179.501 74.5C179.501 74.9733 179.324 75.3433 178.971 75.61C178.618 75.87 178.081 76 177.361 76H174.641ZM175.831 75.09H177.261C177.601 75.09 177.858 75.0367 178.031 74.93C178.204 74.8167 178.291 74.6467 178.291 74.42C178.291 74.18 178.211 74.0033 178.051 73.89C177.891 73.7767 177.641 73.72 177.301 73.72H175.831V75.09ZM175.831 72.89H177.141C177.461 72.89 177.701 72.8333 177.861 72.72C178.028 72.6 178.111 72.4333 178.111 72.22C178.111 72 178.028 71.8367 177.861 71.73C177.701 71.6233 177.461 71.57 177.141 71.57H175.831V72.89ZM180.832 76V70.66H182.082V72.83H184.772V70.66H186.022V76H184.772V73.89H182.082V76H180.832ZM190.938 76V74.92L190.868 74.69V72.8C190.868 72.4333 190.758 72.15 190.538 71.95C190.318 71.7433 189.984 71.64 189.538 71.64C189.238 71.64 188.941 71.6867 188.648 71.78C188.361 71.8733 188.118 72.0033 187.918 72.17L187.428 71.26C187.714 71.04 188.054 70.8767 188.448 70.77C188.848 70.6567 189.261 70.6 189.688 70.6C190.461 70.6 191.058 70.7867 191.478 71.16C191.904 71.5267 192.118 72.0967 192.118 72.87V76H190.938ZM189.258 76.07C188.858 76.07 188.508 76.0033 188.208 75.87C187.908 75.73 187.674 75.54 187.508 75.3C187.348 75.0533 187.268 74.7767 187.268 74.47C187.268 74.17 187.338 73.9 187.478 73.66C187.624 73.42 187.861 73.23 188.188 73.09C188.514 72.95 188.948 72.88 189.488 72.88H191.038V73.71H189.578C189.151 73.71 188.864 73.78 188.718 73.92C188.571 74.0533 188.498 74.22 188.498 74.42C188.498 74.6467 188.588 74.8267 188.768 74.96C188.948 75.0933 189.198 75.16 189.518 75.16C189.824 75.16 190.098 75.09 190.338 74.95C190.584 74.81 190.761 74.6033 190.868 74.33L191.078 75.08C190.958 75.3933 190.741 75.6367 190.428 75.81C190.121 75.9833 189.731 76.07 189.258 76.07ZM197.054 76V74.18L197.234 74.39H195.634C194.901 74.39 194.324 74.2367 193.904 73.93C193.491 73.6167 193.284 73.1667 193.284 72.58C193.284 71.9533 193.504 71.4767 193.944 71.15C194.391 70.8233 194.984 70.66 195.724 70.66H198.174V76H197.054ZM193.214 76L194.654 73.96H195.934L194.554 76H193.214ZM197.054 73.78V71.38L197.234 71.71H195.764C195.378 71.71 195.078 71.7833 194.864 71.93C194.658 72.07 194.554 72.3 194.554 72.62C194.554 73.22 194.944 73.52 195.724 73.52H197.234L197.054 73.78Z" fill="black"/>
<g clip-path="url(#clip1_180_978)">
<path d="M151.658 13H181.658C192.704 13 201.658 21.9543 201.658 33V63H171.658C160.613 63 151.658 54.0457 151.658 43V13Z" fill="url(#paint0_linear_180_978)"/>
<path d="M160.658 33.0911L177.658 22L194.658 33.0911" stroke="black" stroke-width="2" stroke-linecap="round" stroke-linejoin="round"/>
<path d="M190.88 40.149V53.055C190.88 53.7233 190.373 54.265 189.747 54.265H165.569C164.943 54.265 164.436 53.7233 164.436 53.055V40.149" stroke="black" stroke-width="2" stroke-linecap="round" stroke-linejoin="round"/>
</g>
<path d="M415.665 76V69H418.795C419.582 69 420.195 69.1567 420.635 69.47C421.075 69.7767 421.295 70.22 421.295 70.8C421.295 71.3733 421.085 71.8167 420.665 72.13C420.245 72.4367 419.692 72.59 419.005 72.59L419.185 72.23C419.965 72.23 420.568 72.3867 420.995 72.7C421.422 73.0133 421.635 73.4667 421.635 74.06C421.635 74.6667 421.412 75.1433 420.965 75.49C420.518 75.83 419.858 76 418.985 76H415.665ZM416.945 75H418.945C419.398 75 419.742 74.9167 419.975 74.75C420.208 74.5767 420.325 74.3133 420.325 73.96C420.325 73.6067 420.208 73.35 419.975 73.19C419.742 73.0233 419.398 72.94 418.945 72.94H416.945V75ZM416.945 71.99H418.685C419.105 71.99 419.425 71.9067 419.645 71.74C419.865 71.5667 419.975 71.32 419.975 71C419.975 70.6667 419.865 70.4167 419.645 70.25C419.425 70.0833 419.105 70 418.685 70H416.945V71.99ZM428.366 76V70.66H429.616V76H428.366ZM425.576 72.42C426.263 72.42 426.783 72.5733 427.136 72.88C427.496 73.1867 427.676 73.62 427.676 74.18C427.676 74.76 427.476 75.2133 427.076 75.54C426.683 75.86 426.123 76.0167 425.396 76.01L422.976 76V70.66H424.226V72.41L425.576 72.42ZM425.286 75.09C425.653 75.0967 425.933 75.02 426.126 74.86C426.319 74.7 426.416 74.4667 426.416 74.16C426.416 73.8533 426.319 73.6333 426.126 73.5C425.939 73.36 425.659 73.2867 425.286 73.28L424.226 73.27V75.08L425.286 75.09ZM430.506 76L432.856 72.94L432.836 73.61L430.596 70.66H431.986L433.556 72.76H433.026L434.606 70.66H435.956L433.696 73.61L433.706 72.94L436.046 76H434.636L432.986 73.77L433.506 73.84L431.886 76H430.506ZM439.145 76.07C438.598 76.07 438.112 75.9533 437.685 75.72C437.258 75.48 436.922 75.1533 436.675 74.74C436.428 74.3267 436.305 73.8567 436.305 73.33C436.305 72.7967 436.428 72.3267 436.675 71.92C436.922 71.5067 437.258 71.1833 437.685 70.95C438.112 70.7167 438.598 70.6 439.145 70.6C439.698 70.6 440.188 70.7167 440.615 70.95C441.048 71.1833 441.385 71.5033 441.625 71.91C441.872 72.3167 441.995 72.79 441.995 73.33C441.995 73.8567 441.872 74.3267 441.625 74.74C441.385 75.1533 441.048 75.48 440.615 75.72C440.188 75.9533 439.698 76.07 439.145 76.07ZM439.145 75C439.452 75 439.725 74.9333 439.965 74.8C440.205 74.6667 440.392 74.4733 440.525 74.22C440.665 73.9667 440.735 73.67 440.735 73.33C440.735 72.9833 440.665 72.6867 440.525 72.44C440.392 72.1867 440.205 71.9933 439.965 71.86C439.725 71.7267 439.455 71.66 439.155 71.66C438.848 71.66 438.575 71.7267 438.335 71.86C438.102 71.9933 437.915 72.1867 437.775 72.44C437.635 72.6867 437.565 72.9833 437.565 73.33C437.565 73.67 437.635 73.9667 437.775 74.22C437.915 74.4733 438.102 74.6667 438.335 74.8C438.575 74.9333 438.845 75 439.145 75ZM446.831 75.42V71.72H444.781L444.751 72.58C444.738 72.8867 444.718 73.1833 444.691 73.47C444.665 73.75 444.621 74.01 444.561 74.25C444.501 74.4833 444.415 74.6767 444.301 74.83C444.188 74.9833 444.038 75.0833 443.851 75.13L442.611 74.94C442.811 74.94 442.971 74.8767 443.091 74.75C443.218 74.6167 443.315 74.4367 443.381 74.21C443.455 73.9767 443.508 73.7133 443.541 73.42C443.575 73.12 443.598 72.81 443.611 72.49L443.681 70.66H448.081V75.42H446.831ZM442.421 77.19V74.94H448.871V77.19H447.701V76H443.581V77.19H442.421Z" fill="black"/>
<path d="M434 40.8333H449.688M449.688 40.8333L442.965 47.6667M449.688 40.8333L442.965 34" stroke="black" stroke-width="2" stroke-linecap="round" stroke-linejoin="round"/>
<path d="M449.376 23.8333V21.5556C449.376 19.0396 447.369 17 444.894 17H422.482C420.007 17 418 19.0396 418 21.5556V53.4444C418 55.9605 420.007 58 422.482 58H444.894C447.369 58 449.376 55.9605 449.376 53.4444V51.1667" stroke="black" stroke-width="2" stroke-linecap="round" stroke-linejoin="round"/>
<path d="M282.21 76V69H288.4V76H287.12V69.78L287.42 70.1H283.19L283.49 69.78V76H282.21ZM293.194 76.07C292.76 76.07 292.364 75.97 292.004 75.77C291.65 75.57 291.367 75.27 291.154 74.87C290.947 74.4633 290.844 73.95 290.844 73.33C290.844 72.7033 290.944 72.19 291.144 71.79C291.35 71.39 291.63 71.0933 291.984 70.9C292.337 70.7 292.74 70.6 293.194 70.6C293.72 70.6 294.184 70.7133 294.584 70.94C294.99 71.1667 295.31 71.4833 295.544 71.89C295.784 72.2967 295.904 72.7767 295.904 73.33C295.904 73.8833 295.784 74.3667 295.544 74.78C295.31 75.1867 294.99 75.5033 294.584 75.73C294.184 75.9567 293.72 76.07 293.194 76.07ZM290.234 77.94V70.66H291.424V71.92L291.384 73.34L291.484 74.76V77.94H290.234ZM293.054 75C293.354 75 293.62 74.9333 293.854 74.8C294.094 74.6667 294.284 74.4733 294.424 74.22C294.564 73.9667 294.634 73.67 294.634 73.33C294.634 72.9833 294.564 72.6867 294.424 72.44C294.284 72.1867 294.094 71.9933 293.854 71.86C293.62 71.7267 293.354 71.66 293.054 71.66C292.754 71.66 292.484 71.7267 292.244 71.86C292.004 71.9933 291.814 72.1867 291.674 72.44C291.534 72.6867 291.464 72.9833 291.464 73.33C291.464 73.67 291.534 73.9667 291.674 74.22C291.814 74.4733 292.004 74.6667 292.244 74.8C292.484 74.9333 292.754 75 293.054 75ZM299.528 76.07C298.981 76.07 298.495 75.9533 298.068 75.72C297.641 75.48 297.305 75.1533 297.058 74.74C296.811 74.3267 296.688 73.8567 296.688 73.33C296.688 72.7967 296.811 72.3267 297.058 71.92C297.305 71.5067 297.641 71.1833 298.068 70.95C298.495 70.7167 298.981 70.6 299.528 70.6C300.081 70.6 300.571 70.7167 300.998 70.95C301.431 71.1833 301.768 71.5033 302.008 71.91C302.255 72.3167 302.378 72.79 302.378 73.33C302.378 73.8567 302.255 74.3267 302.008 74.74C301.768 75.1533 301.431 75.48 300.998 75.72C300.571 75.9533 300.081 76.07 299.528 76.07ZM299.528 75C299.835 75 300.108 74.9333 300.348 74.8C300.588 74.6667 300.775 74.4733 300.908 74.22C301.048 73.9667 301.118 73.67 301.118 73.33C301.118 72.9833 301.048 72.6867 300.908 72.44C300.775 72.1867 300.588 71.9933 300.348 71.86C300.108 71.7267 299.838 71.66 299.538 71.66C299.231 71.66 298.958 71.7267 298.718 71.86C298.485 71.9933 298.298 72.1867 298.158 72.44C298.018 72.6867 297.948 72.9833 297.948 73.33C297.948 73.67 298.018 73.9667 298.158 74.22C298.298 74.4733 298.485 74.6667 298.718 74.8C298.958 74.9333 299.228 75 299.528 75ZM307.003 76.1C306.996 76.1 306.966 76.1 306.913 76.1C306.866 76.1 306.819 76.1 306.773 76.1C306.733 76.1 306.706 76.1 306.693 76.1C305.566 76.0867 304.693 75.8433 304.073 75.37C303.453 74.89 303.143 74.2067 303.143 73.32C303.143 72.44 303.453 71.7667 304.073 71.3C304.693 70.8333 305.576 70.5933 306.723 70.58C306.736 70.58 306.763 70.58 306.803 70.58C306.849 70.58 306.893 70.58 306.933 70.58C306.979 70.58 307.006 70.58 307.013 70.58C308.166 70.58 309.063 70.8167 309.703 71.29C310.349 71.7567 310.673 72.4333 310.673 73.32C310.673 74.2133 310.349 74.9 309.703 75.38C309.063 75.86 308.163 76.1 307.003 76.1ZM306.963 75.06C307.529 75.06 307.996 74.9967 308.363 74.87C308.729 74.7367 309.003 74.5433 309.183 74.29C309.363 74.03 309.453 73.7067 309.453 73.32C309.453 72.94 309.363 72.6267 309.183 72.38C309.003 72.1267 308.729 71.94 308.363 71.82C307.996 71.6933 307.529 71.63 306.963 71.63C306.949 71.63 306.916 71.63 306.863 71.63C306.816 71.63 306.786 71.63 306.773 71.63C306.219 71.63 305.766 71.6967 305.413 71.83C305.059 71.9567 304.796 72.1433 304.623 72.39C304.456 72.6367 304.373 72.9467 304.373 73.32C304.373 73.7 304.456 74.0167 304.623 74.27C304.796 74.5233 305.059 74.7167 305.413 74.85C305.773 74.9833 306.226 75.0533 306.773 75.06C306.786 75.06 306.816 75.06 306.863 75.06C306.916 75.06 306.949 75.06 306.963 75.06ZM306.313 77.94V68.58H307.493V77.94H306.313ZM311.884 76V70.66H313.134V74.18L316.084 70.66H317.224V76H315.974V72.48L313.034 76H311.884ZM318.126 75.99L318.186 74.94C318.232 74.9467 318.276 74.9533 318.316 74.96C318.356 74.9667 318.392 74.97 318.426 74.97C318.632 74.97 318.792 74.9067 318.906 74.78C319.019 74.6533 319.102 74.4833 319.156 74.27C319.216 74.05 319.256 73.8067 319.276 73.54C319.302 73.2667 319.322 72.9933 319.336 72.72L319.426 70.66H323.746V76H322.496V71.38L322.786 71.72H320.246L320.516 71.37L320.446 72.78C320.426 73.2533 320.386 73.6933 320.326 74.1C320.272 74.5 320.186 74.85 320.066 75.15C319.952 75.45 319.792 75.6833 319.586 75.85C319.386 76.0167 319.129 76.1 318.816 76.1C318.716 76.1 318.606 76.09 318.486 76.07C318.372 76.05 318.252 76.0233 318.126 75.99ZM328.109 72.42C328.796 72.42 329.319 72.5733 329.679 72.88C330.039 73.1867 330.219 73.62 330.219 74.18C330.219 74.76 330.019 75.2133 329.619 75.54C329.219 75.86 328.656 76.0167 327.929 76.01L325.429 76V70.66H326.679V72.41L328.109 72.42ZM327.819 75.09C328.186 75.0967 328.466 75.02 328.659 74.86C328.852 74.7 328.949 74.4667 328.949 74.16C328.949 73.8533 328.852 73.6333 328.659 73.5C328.472 73.36 328.192 73.2867 327.819 73.28L326.679 73.27V75.08L327.819 75.09Z" fill="black"/>
<rect x="284" y="15" width="43" height="44" rx="21.5" stroke="black" stroke-width="2"/>
<path d="M305.734 34.8521C305.588 34.8375 305.413 34.8375 305.252 34.8521C301.782 34.7354 299.025 31.8917 299.025 28.3917C299.025 24.8187 301.913 21.9167 305.5 21.9167C309.073 21.9167 311.975 24.8187 311.975 28.3917C311.961 31.8917 309.205 34.7354 305.734 34.8521Z" stroke="black" stroke-width="2" stroke-linecap="round" stroke-linejoin="round"/>
<path d="M298.442 40.2333C294.913 42.5958 294.913 46.4458 298.442 48.7937C302.452 51.4771 309.029 51.4771 313.04 48.7937C316.569 46.4312 316.569 42.5812 313.04 40.2333C309.044 37.5646 302.467 37.5646 298.442 40.2333Z" stroke="black" stroke-width="2" stroke-linecap="round" stroke-linejoin="round"/>
<path d="M55.0006 43.9457C59.6399 43.9457 63.4006 40.3353 63.4006 35.8813C63.4006 31.4274 59.6399 27.817 55.0006 27.817C50.3613 27.817 46.6006 31.4274 46.6006 35.8813C46.6006 40.3353 50.3613 43.9457 55.0006 43.9457Z" stroke="black" stroke-width="2" stroke-linecap="round" stroke-linejoin="round"/>
<path d="M76.3427 31.5678L73.2692 24.4427L77.4 19.7525L71.8 14.3762L66.9412 18.3626L59.3618 15.3701L57.6188 9H52.1468L50.3775 15.4545L42.9723 18.4513L38.2 14.3762L32.6 19.7525L36.6694 24.5611L33.643 31.7047L27 33.1931V38.5693L33.7231 40.3314L36.8441 47.4393L32.6 52.0099L38.2 57.3862L43.2152 53.4623L50.5116 56.344L52.2 62.7624H57.8L59.4926 56.3464L66.9143 53.3956C68.1513 54.2445 71.8 57.3862 71.8 57.3862L77.4 52.0099L73.2445 47.3041L76.3189 40.1768L82.9997 38.508L83 33.1931L76.3427 31.5678Z" stroke="black" stroke-width="2" stroke-linecap="round" stroke-linejoin="round"/>
<path d="M34.5594 69H35.8594V76H34.5594V69ZM30.9394 76H29.6394V69H30.9394V76ZM34.6594 73H30.8294V71.89H34.6594V73ZM40.923 76V74.92L40.853 74.69V72.8C40.853 72.4333 40.743 72.15 40.523 71.95C40.303 71.7433 39.9697 71.64 39.523 71.64C39.223 71.64 38.9263 71.6867 38.633 71.78C38.3463 71.8733 38.103 72.0033 37.903 72.17L37.413 71.26C37.6997 71.04 38.0397 70.8767 38.433 70.77C38.833 70.6567 39.2463 70.6 39.673 70.6C40.4463 70.6 41.043 70.7867 41.463 71.16C41.8897 71.5267 42.103 72.0967 42.103 72.87V76H40.923ZM39.243 76.07C38.843 76.07 38.493 76.0033 38.193 75.87C37.893 75.73 37.6597 75.54 37.493 75.3C37.333 75.0533 37.253 74.7767 37.253 74.47C37.253 74.17 37.323 73.9 37.463 73.66C37.6097 73.42 37.8463 73.23 38.173 73.09C38.4997 72.95 38.933 72.88 39.473 72.88H41.023V73.71H39.563C39.1363 73.71 38.8497 73.78 38.703 73.92C38.5563 74.0533 38.483 74.22 38.483 74.42C38.483 74.6467 38.573 74.8267 38.753 74.96C38.933 75.0933 39.183 75.16 39.503 75.16C39.8097 75.16 40.083 75.09 40.323 74.95C40.5697 74.81 40.7463 74.6033 40.853 74.33L41.063 75.08C40.943 75.3933 40.7263 75.6367 40.413 75.81C40.1063 75.9833 39.7163 76.07 39.243 76.07ZM46.0798 76.07C45.5198 76.07 45.0198 75.9533 44.5798 75.72C44.1465 75.48 43.8065 75.1533 43.5598 74.74C43.3131 74.3267 43.1898 73.8567 43.1898 73.33C43.1898 72.7967 43.3131 72.3267 43.5598 71.92C43.8065 71.5067 44.1465 71.1833 44.5798 70.95C45.0198 70.7167 45.5198 70.6 46.0798 70.6C46.5998 70.6 47.0565 70.7067 47.4498 70.92C47.8498 71.1267 48.1531 71.4333 48.3598 71.84L47.3998 72.4C47.2398 72.1467 47.0431 71.96 46.8098 71.84C46.5831 71.72 46.3365 71.66 46.0698 71.66C45.7631 71.66 45.4865 71.7267 45.2398 71.86C44.9931 71.9933 44.7998 72.1867 44.6598 72.44C44.5198 72.6867 44.4498 72.9833 44.4498 73.33C44.4498 73.6767 44.5198 73.9767 44.6598 74.23C44.7998 74.4767 44.9931 74.6667 45.2398 74.8C45.4865 74.9333 45.7631 75 46.0698 75C46.3365 75 46.5831 74.94 46.8098 74.82C47.0431 74.7 47.2398 74.5133 47.3998 74.26L48.3598 74.82C48.1531 75.22 47.8498 75.53 47.4498 75.75C47.0565 75.9633 46.5998 76.07 46.0798 76.07ZM50.5313 76V71.42L50.8213 71.72H48.6513V70.66H53.6513V71.72H51.4913L51.7813 71.42V76H50.5313ZM57.518 76.07C57.0847 76.07 56.688 75.97 56.328 75.77C55.9747 75.57 55.6913 75.27 55.478 74.87C55.2713 74.4633 55.168 73.95 55.168 73.33C55.168 72.7033 55.268 72.19 55.468 71.79C55.6747 71.39 55.9547 71.0933 56.308 70.9C56.6613 70.7 57.0647 70.6 57.518 70.6C58.0447 70.6 58.508 70.7133 58.908 70.94C59.3147 71.1667 59.6347 71.4833 59.868 71.89C60.108 72.2967 60.228 72.7767 60.228 73.33C60.228 73.8833 60.108 74.3667 59.868 74.78C59.6347 75.1867 59.3147 75.5033 58.908 75.73C58.508 75.9567 58.0447 76.07 57.518 76.07ZM54.558 77.94V70.66H55.748V71.92L55.708 73.34L55.808 74.76V77.94H54.558ZM57.378 75C57.678 75 57.9447 74.9333 58.178 74.8C58.418 74.6667 58.608 74.4733 58.748 74.22C58.888 73.9667 58.958 73.67 58.958 73.33C58.958 72.9833 58.888 72.6867 58.748 72.44C58.608 72.1867 58.418 71.9933 58.178 71.86C57.9447 71.7267 57.678 71.66 57.378 71.66C57.078 71.66 56.808 71.7267 56.568 71.86C56.328 71.9933 56.138 72.1867 55.998 72.44C55.858 72.6867 55.788 72.9833 55.788 73.33C55.788 73.67 55.858 73.9667 55.998 74.22C56.138 74.4733 56.328 74.6667 56.568 74.8C56.808 74.9333 57.078 75 57.378 75ZM63.8521 76.07C63.3054 76.07 62.8187 75.9533 62.3921 75.72C61.9654 75.48 61.6287 75.1533 61.3821 74.74C61.1354 74.3267 61.0121 73.8567 61.0121 73.33C61.0121 72.7967 61.1354 72.3267 61.3821 71.92C61.6287 71.5067 61.9654 71.1833 62.3921 70.95C62.8187 70.7167 63.3054 70.6 63.8521 70.6C64.4054 70.6 64.8954 70.7167 65.3221 70.95C65.7554 71.1833 66.0921 71.5033 66.3321 71.91C66.5787 72.3167 66.7021 72.79 66.7021 73.33C66.7021 73.8567 66.5787 74.3267 66.3321 74.74C66.0921 75.1533 65.7554 75.48 65.3221 75.72C64.8954 75.9533 64.4054 76.07 63.8521 76.07ZM63.8521 75C64.1587 75 64.4321 74.9333 64.6721 74.8C64.9121 74.6667 65.0987 74.4733 65.2321 74.22C65.3721 73.9667 65.4421 73.67 65.4421 73.33C65.4421 72.9833 65.3721 72.6867 65.2321 72.44C65.0987 72.1867 64.9121 71.9933 64.6721 71.86C64.4321 71.7267 64.1621 71.66 63.8621 71.66C63.5554 71.66 63.2821 71.7267 63.0421 71.86C62.8087 71.9933 62.6221 72.1867 62.4821 72.44C62.3421 72.6867 62.2721 72.9833 62.2721 73.33C62.2721 73.67 62.3421 73.9667 62.4821 74.22C62.6221 74.4733 62.8087 74.6667 63.0421 74.8C63.2821 74.9333 63.5521 75 63.8521 75ZM67.9369 76V70.66H69.1869V74.18L72.1369 70.66H73.2769V76H72.0269V72.48L69.0869 76H67.9369ZM70.5269 70.03C69.9936 70.03 69.5836 69.9067 69.2969 69.66C69.0102 69.4067 68.8636 69.04 68.8569 68.56H69.6869C69.6936 68.8 69.7669 68.99 69.9069 69.13C70.0536 69.27 70.2569 69.34 70.5169 69.34C70.7702 69.34 70.9702 69.27 71.1169 69.13C71.2702 68.99 71.3502 68.8 71.3569 68.56H72.2069C72.2002 69.04 72.0502 69.4067 71.7569 69.66C71.4702 69.9067 71.0602 70.03 70.5269 70.03ZM78.7884 76L76.8584 73.44L77.8784 72.81L80.2584 76H78.7884ZM74.9584 76V70.66H76.2084V76H74.9584ZM75.8384 73.86V72.82H77.6484V73.86H75.8384ZM77.9984 73.48L76.8284 73.34L78.7884 70.66H80.1284L77.9984 73.48ZM81.14 76V70.66H82.39V74.18L85.34 70.66H86.48V76H85.23V72.48L82.29 76H81.14Z" fill="black"/>
</g>
<defs>
<linearGradient id="paint0_linear_180_978" x1="176.204" y1="-28.8182" x2="176.204" y2="69.8182" gradientUnits="userSpaceOnUse">
<stop stop-color="#FF4343"/>
<stop offset="1" stop-color="#5ABCF3"/>
</linearGradient>
<clipPath id="clip0_180_978">
<rect width="475" height="92" fill="white"/>
</clipPath>
<clipPath id="clip1_180_978">
<rect width="86.342" height="50" fill="white" transform="translate(151.658 13)"/>
</clipPath>
</defs>
</svg>
