<svg width="246" height="29" viewBox="0 0 246 29" fill="none" xmlns="http://www.w3.org/2000/svg">
<path d="M222 27.5222V25.8645C222 19.456 227.045 14.261 233.269 14.261C239.493 14.261 244.539 19.456 244.539 25.8645V27.5222" stroke="black" stroke-linecap="round" stroke-linejoin="round"/>
<path d="M233.269 14.2612C236.826 14.2612 239.709 11.2925 239.709 7.63058C239.709 3.96861 236.826 1 233.269 1C229.713 1 226.83 3.96861 226.83 7.63058C226.83 11.2925 229.713 14.2612 233.269 14.2612Z" stroke="black" stroke-linecap="round" stroke-linejoin="round"/>
<path d="M12.6 11H14.06V25H12.6V11ZM3.84 25H2.36V11H3.84V25ZM12.74 18.54H3.68V17.24H12.74V18.54ZM24.9658 25V22.68L24.9058 22.3V18.42C24.9058 17.5267 24.6524 16.84 24.1458 16.36C23.6524 15.88 22.9124 15.64 21.9258 15.64C21.2458 15.64 20.5991 15.7533 19.9858 15.98C19.3724 16.2067 18.8524 16.5067 18.4258 16.88L17.7858 15.82C18.3191 15.3667 18.9591 15.02 19.7058 14.78C20.4524 14.5267 21.2391 14.4 22.0658 14.4C23.4258 14.4 24.4724 14.74 25.2058 15.42C25.9524 16.0867 26.3258 17.1067 26.3258 18.48V25H24.9658ZM21.3458 25.1C20.5591 25.1 19.8724 24.9733 19.2858 24.72C18.7124 24.4533 18.2724 24.0933 17.9658 23.64C17.6591 23.1733 17.5058 22.64 17.5058 22.04C17.5058 21.4933 17.6324 21 17.8858 20.56C18.1524 20.1067 18.5791 19.7467 19.1658 19.48C19.7658 19.2 20.5658 19.06 21.5658 19.06H25.1858V20.12H21.6058C20.5924 20.12 19.8858 20.3 19.4858 20.66C19.0991 21.02 18.9058 21.4667 18.9058 22C18.9058 22.6 19.1391 23.08 19.6058 23.44C20.0724 23.8 20.7258 23.98 21.5658 23.98C22.3658 23.98 23.0524 23.8 23.6258 23.44C24.2124 23.0667 24.6391 22.5333 24.9058 21.84L25.2258 22.82C24.9591 23.5133 24.4924 24.0667 23.8258 24.48C23.1724 24.8933 22.3458 25.1 21.3458 25.1ZM34.5059 25.1C33.4659 25.1 32.5326 24.8733 31.7059 24.42C30.8926 23.9533 30.2526 23.32 29.7859 22.52C29.3193 21.7067 29.0859 20.78 29.0859 19.74C29.0859 18.6867 29.3193 17.76 29.7859 16.96C30.2526 16.16 30.8926 15.5333 31.7059 15.08C32.5326 14.6267 33.4659 14.4 34.5059 14.4C35.3993 14.4 36.2059 14.5733 36.9259 14.92C37.6459 15.2667 38.2126 15.7867 38.6259 16.48L37.5659 17.2C37.2059 16.6667 36.7593 16.2733 36.2259 16.02C35.6926 15.7667 35.1126 15.64 34.4859 15.64C33.7393 15.64 33.0659 15.8133 32.4659 16.16C31.8659 16.4933 31.3926 16.9667 31.0459 17.58C30.6993 18.1933 30.5259 18.9133 30.5259 19.74C30.5259 20.5667 30.6993 21.2867 31.0459 21.9C31.3926 22.5133 31.8659 22.9933 32.4659 23.34C33.0659 23.6733 33.7393 23.84 34.4859 23.84C35.1126 23.84 35.6926 23.7133 36.2259 23.46C36.7593 23.2067 37.2059 22.82 37.5659 22.3L38.6259 23.02C38.2126 23.7 37.6459 24.22 36.9259 24.58C36.2059 24.9267 35.3993 25.1 34.5059 25.1ZM43.1802 25V15.36L43.5402 15.74H39.2002V14.5H48.5802V15.74H44.2402L44.6002 15.36V25H43.1802ZM56.0533 25.1C55.1466 25.1 54.3266 24.8933 53.5933 24.48C52.8599 24.0533 52.2733 23.4467 51.8333 22.66C51.4066 21.86 51.1933 20.8867 51.1933 19.74C51.1933 18.5933 51.4066 17.6267 51.8333 16.84C52.2599 16.04 52.8399 15.4333 53.5733 15.02C54.3066 14.6067 55.1333 14.4 56.0533 14.4C57.0533 14.4 57.9466 14.6267 58.7333 15.08C59.5333 15.52 60.1599 16.1467 60.6133 16.96C61.0666 17.76 61.2933 18.6867 61.2933 19.74C61.2933 20.8067 61.0666 21.74 60.6133 22.54C60.1599 23.34 59.5333 23.9667 58.7333 24.42C57.9466 24.8733 57.0533 25.1 56.0533 25.1ZM50.6333 28.88V14.5H51.9933V17.66L51.8533 19.76L52.0533 21.88V28.88H50.6333ZM55.9533 23.84C56.6999 23.84 57.3666 23.6733 57.9533 23.34C58.5399 22.9933 59.0066 22.5133 59.3533 21.9C59.6999 21.2733 59.8733 20.5533 59.8733 19.74C59.8733 18.9267 59.6999 18.2133 59.3533 17.6C59.0066 16.9867 58.5399 16.5067 57.9533 16.16C57.3666 15.8133 56.6999 15.64 55.9533 15.64C55.2066 15.64 54.5333 15.8133 53.9333 16.16C53.3466 16.5067 52.8799 16.9867 52.5333 17.6C52.1999 18.2133 52.0333 18.9267 52.0333 19.74C52.0333 20.5533 52.1999 21.2733 52.5333 21.9C52.8799 22.5133 53.3466 22.9933 53.9333 23.34C54.5333 23.6733 55.2066 23.84 55.9533 23.84ZM68.6642 25.1C67.6509 25.1 66.7376 24.8733 65.9242 24.42C65.1242 23.9533 64.4909 23.32 64.0242 22.52C63.5576 21.7067 63.3242 20.78 63.3242 19.74C63.3242 18.6867 63.5576 17.76 64.0242 16.96C64.4909 16.16 65.1242 15.5333 65.9242 15.08C66.7242 14.6267 67.6376 14.4 68.6642 14.4C69.7042 14.4 70.6242 14.6267 71.4242 15.08C72.2376 15.5333 72.8709 16.16 73.3242 16.96C73.7909 17.76 74.0242 18.6867 74.0242 19.74C74.0242 20.78 73.7909 21.7067 73.3242 22.52C72.8709 23.32 72.2376 23.9533 71.4242 24.42C70.6109 24.8733 69.6909 25.1 68.6642 25.1ZM68.6642 23.84C69.4242 23.84 70.0976 23.6733 70.6842 23.34C71.2709 22.9933 71.7309 22.5133 72.0642 21.9C72.4109 21.2733 72.5842 20.5533 72.5842 19.74C72.5842 18.9133 72.4109 18.1933 72.0642 17.58C71.7309 16.9667 71.2709 16.4933 70.6842 16.16C70.0976 15.8133 69.4309 15.64 68.6842 15.64C67.9376 15.64 67.2709 15.8133 66.6842 16.16C66.0976 16.4933 65.6309 16.9667 65.2842 17.58C64.9376 18.1933 64.7642 18.9133 64.7642 19.74C64.7642 20.5533 64.9376 21.2733 65.2842 21.9C65.6309 22.5133 66.0976 22.9933 66.6842 23.34C67.2709 23.6733 67.9309 23.84 68.6642 23.84ZM77.0591 25V14.5H78.4791V22.84L85.4991 14.5H86.7591V25H85.3391V16.64L78.3391 25H77.0591ZM81.8191 12.98C80.9391 12.98 80.2257 12.76 79.6791 12.32C79.1457 11.8667 78.8657 11.22 78.8391 10.38H79.8591C79.8724 10.9133 80.0591 11.3333 80.4191 11.64C80.7791 11.9467 81.2457 12.1 81.8191 12.1C82.3924 12.1 82.8591 11.9467 83.2191 11.64C83.5924 11.3333 83.7857 10.9133 83.7991 10.38H84.8191C84.8057 11.22 84.5257 11.8667 83.9791 12.32C83.4324 12.76 82.7124 12.98 81.8191 12.98ZM98.5286 25L94.2086 19.8L95.3886 19.1L100.209 25H98.5286ZM90.8286 25V14.5H92.2486V25H90.8286ZM91.8086 20.32V19.1H95.1886V20.32H91.8086ZM95.5086 19.9L94.1886 19.7L98.3686 14.5H99.9086L95.5086 19.9ZM108.774 25V22.68L108.714 22.3V18.42C108.714 17.5267 108.461 16.84 107.954 16.36C107.461 15.88 106.721 15.64 105.734 15.64C105.054 15.64 104.408 15.7533 103.794 15.98C103.181 16.2067 102.661 16.5067 102.234 16.88L101.594 15.82C102.128 15.3667 102.768 15.02 103.514 14.78C104.261 14.5267 105.048 14.4 105.874 14.4C107.234 14.4 108.281 14.74 109.014 15.42C109.761 16.0867 110.134 17.1067 110.134 18.48V25H108.774ZM105.154 25.1C104.368 25.1 103.681 24.9733 103.094 24.72C102.521 24.4533 102.081 24.0933 101.774 23.64C101.468 23.1733 101.314 22.64 101.314 22.04C101.314 21.4933 101.441 21 101.694 20.56C101.961 20.1067 102.388 19.7467 102.974 19.48C103.574 19.2 104.374 19.06 105.374 19.06H108.994V20.12H105.414C104.401 20.12 103.694 20.3 103.294 20.66C102.908 21.02 102.714 21.4667 102.714 22C102.714 22.6 102.948 23.08 103.414 23.44C103.881 23.8 104.534 23.98 105.374 23.98C106.174 23.98 106.861 23.8 107.434 23.44C108.021 23.0667 108.448 22.5333 108.714 21.84L109.034 22.82C108.768 23.5133 108.301 24.0667 107.634 24.48C106.981 24.8933 106.154 25.1 105.154 25.1ZM119.149 25V14.5H128.589V25H127.169V15.36L127.529 15.74H120.209L120.569 15.36V25H119.149ZM138.045 25.1C137.139 25.1 136.319 24.8933 135.585 24.48C134.852 24.0533 134.265 23.4467 133.825 22.66C133.399 21.86 133.185 20.8867 133.185 19.74C133.185 18.5933 133.399 17.6267 133.825 16.84C134.252 16.04 134.832 15.4333 135.565 15.02C136.299 14.6067 137.125 14.4 138.045 14.4C139.045 14.4 139.939 14.6267 140.725 15.08C141.525 15.52 142.152 16.1467 142.605 16.96C143.059 17.76 143.285 18.6867 143.285 19.74C143.285 20.8067 143.059 21.74 142.605 22.54C142.152 23.34 141.525 23.9667 140.725 24.42C139.939 24.8733 139.045 25.1 138.045 25.1ZM132.625 28.88V14.5H133.985V17.66L133.845 19.76L134.045 21.88V28.88H132.625ZM137.945 23.84C138.692 23.84 139.359 23.6733 139.945 23.34C140.532 22.9933 140.999 22.5133 141.345 21.9C141.692 21.2733 141.865 20.5533 141.865 19.74C141.865 18.9267 141.692 18.2133 141.345 17.6C140.999 16.9867 140.532 16.5067 139.945 16.16C139.359 15.8133 138.692 15.64 137.945 15.64C137.199 15.64 136.525 15.8133 135.925 16.16C135.339 16.5067 134.872 16.9867 134.525 17.6C134.192 18.2133 134.025 18.9267 134.025 19.74C134.025 20.5533 134.192 21.2733 134.525 21.9C134.872 22.5133 135.339 22.9933 135.925 23.34C136.525 23.6733 137.199 23.84 137.945 23.84ZM150.656 25.1C149.643 25.1 148.73 24.8733 147.916 24.42C147.116 23.9533 146.483 23.32 146.016 22.52C145.55 21.7067 145.316 20.78 145.316 19.74C145.316 18.6867 145.55 17.76 146.016 16.96C146.483 16.16 147.116 15.5333 147.916 15.08C148.716 14.6267 149.63 14.4 150.656 14.4C151.696 14.4 152.616 14.6267 153.416 15.08C154.23 15.5333 154.863 16.16 155.316 16.96C155.783 17.76 156.016 18.6867 156.016 19.74C156.016 20.78 155.783 21.7067 155.316 22.52C154.863 23.32 154.23 23.9533 153.416 24.42C152.603 24.8733 151.683 25.1 150.656 25.1ZM150.656 23.84C151.416 23.84 152.09 23.6733 152.676 23.34C153.263 22.9933 153.723 22.5133 154.056 21.9C154.403 21.2733 154.576 20.5533 154.576 19.74C154.576 18.9133 154.403 18.1933 154.056 17.58C153.723 16.9667 153.263 16.4933 152.676 16.16C152.09 15.8133 151.423 15.64 150.676 15.64C149.93 15.64 149.263 15.8133 148.676 16.16C148.09 16.4933 147.623 16.9667 147.276 17.58C146.93 18.1933 146.756 18.9133 146.756 19.74C146.756 20.5533 146.93 21.2733 147.276 21.9C147.623 22.5133 148.09 22.9933 148.676 23.34C149.263 23.6733 149.923 23.84 150.656 23.84ZM164.951 25.12C164.951 25.12 164.925 25.12 164.871 25.12C164.818 25.12 164.765 25.12 164.711 25.12C164.671 25.12 164.638 25.12 164.611 25.12C162.531 25.1067 160.911 24.6333 159.751 23.7C158.591 22.7667 158.011 21.44 158.011 19.72C158.011 18.0267 158.591 16.72 159.751 15.8C160.925 14.8667 162.571 14.3933 164.691 14.38C164.705 14.38 164.731 14.38 164.771 14.38C164.825 14.38 164.871 14.38 164.911 14.38C164.951 14.38 164.978 14.38 164.991 14.38C167.125 14.3933 168.785 14.8667 169.971 15.8C171.158 16.72 171.751 18.0267 171.751 19.72C171.751 21.4533 171.151 22.7867 169.951 23.72C168.765 24.6533 167.098 25.12 164.951 25.12ZM164.931 23.88C166.118 23.88 167.111 23.72 167.911 23.4C168.711 23.0667 169.318 22.5933 169.731 21.98C170.145 21.3667 170.351 20.6133 170.351 19.72C170.351 18.8533 170.145 18.12 169.731 17.52C169.318 16.9067 168.711 16.44 167.911 16.12C167.111 15.8 166.118 15.64 164.931 15.64C164.918 15.64 164.878 15.64 164.811 15.64C164.758 15.64 164.725 15.64 164.711 15.64C163.551 15.64 162.578 15.8067 161.791 16.14C161.005 16.46 160.411 16.92 160.011 17.52C159.611 18.12 159.411 18.8533 159.411 19.72C159.411 20.6 159.611 21.3467 160.011 21.96C160.425 22.5733 161.025 23.0467 161.811 23.38C162.598 23.7 163.565 23.8667 164.711 23.88C164.738 23.88 164.778 23.88 164.831 23.88C164.885 23.88 164.918 23.88 164.931 23.88ZM164.171 28.88V10.16H165.551V28.88H164.171ZM174.754 25V14.5H176.174V22.84L183.194 14.5H184.454V25H183.034V16.64L176.034 25H174.754ZM186.604 24.98L186.704 23.76C186.797 23.7733 186.884 23.7933 186.964 23.82C187.057 23.8333 187.137 23.84 187.204 23.84C187.631 23.84 187.971 23.68 188.224 23.36C188.491 23.04 188.691 22.6133 188.824 22.08C188.957 21.5467 189.051 20.9467 189.104 20.28C189.157 19.6 189.204 18.92 189.244 18.24L189.424 14.5H197.124V25H195.704V15.32L196.064 15.74H190.344L190.684 15.3L190.524 18.34C190.484 19.2467 190.411 20.1133 190.304 20.94C190.211 21.7667 190.057 22.4933 189.844 23.12C189.644 23.7467 189.364 24.24 189.004 24.6C188.644 24.9467 188.184 25.12 187.624 25.12C187.464 25.12 187.297 25.1067 187.124 25.08C186.964 25.0533 186.791 25.02 186.604 24.98ZM207.941 25V21.22L208.201 21.52H204.641C203.294 21.52 202.241 21.2267 201.481 20.64C200.721 20.0533 200.341 19.2 200.341 18.08C200.341 16.88 200.747 15.9867 201.561 15.4C202.374 14.8 203.461 14.5 204.821 14.5H209.241V25H207.941ZM200.261 25L203.141 20.96H204.621L201.801 25H200.261ZM207.941 20.8V15.32L208.201 15.74H204.861C203.887 15.74 203.127 15.9267 202.581 16.3C202.047 16.6733 201.781 17.28 201.781 18.12C201.781 19.68 202.774 20.46 204.761 20.46H208.201L207.941 20.8Z" fill="black"/>
</svg>
