<svg width="250" height="33" viewBox="0 0 250 33" fill="none" xmlns="http://www.w3.org/2000/svg">
<path d="M1.12963 5.195H6.67963V6.14H1.12963V5.195ZM1.24963 10.04H7.56463V11H0.139629V0.499999H7.33963V1.46H1.24963V10.04ZM12.9551 11.075C12.1751 11.075 11.4751 10.905 10.8551 10.565C10.2451 10.215 9.76514 9.74 9.41514 9.14C9.06514 8.53 8.89014 7.835 8.89014 7.055C8.89014 6.265 9.06514 5.57 9.41514 4.97C9.76514 4.37 10.2451 3.9 10.8551 3.56C11.4751 3.22 12.1751 3.05 12.9551 3.05C13.6251 3.05 14.2301 3.18 14.7701 3.44C15.3101 3.7 15.7351 4.09 16.0451 4.61L15.2501 5.15C14.9801 4.75 14.6451 4.455 14.2451 4.265C13.8451 4.075 13.4101 3.98 12.9401 3.98C12.3801 3.98 11.8751 4.11 11.4251 4.37C10.9751 4.62 10.6201 4.975 10.3601 5.435C10.1001 5.895 9.97014 6.435 9.97014 7.055C9.97014 7.675 10.1001 8.215 10.3601 8.675C10.6201 9.135 10.9751 9.495 11.4251 9.755C11.8751 10.005 12.3801 10.13 12.9401 10.13C13.4101 10.13 13.8451 10.035 14.2451 9.845C14.6451 9.655 14.9801 9.365 15.2501 8.975L16.0451 9.515C15.7351 10.025 15.3101 10.415 14.7701 10.685C14.2301 10.945 13.6251 11.075 12.9551 11.075ZM16.389 10.985L16.464 10.07C16.534 10.08 16.599 10.095 16.659 10.115C16.729 10.125 16.789 10.13 16.839 10.13C17.159 10.13 17.414 10.01 17.604 9.77C17.804 9.53 17.954 9.21 18.054 8.81C18.154 8.41 18.224 7.96 18.264 7.46C18.304 6.95 18.339 6.44 18.369 5.93L18.504 3.125H24.279V11H23.214V3.74L23.484 4.055H19.194L19.449 3.725L19.329 6.005C19.299 6.685 19.244 7.335 19.164 7.955C19.094 8.575 18.979 9.12 18.819 9.59C18.669 10.06 18.459 10.43 18.189 10.7C17.919 10.96 17.574 11.09 17.154 11.09C17.034 11.09 16.909 11.08 16.779 11.06C16.659 11.04 16.529 11.015 16.389 10.985ZM27.3065 11V3.125H28.3715V9.38L33.6365 3.125H34.5815V11H33.5165V4.73L28.2665 11H27.3065ZM41.5594 11V3.125H45.0394C45.9294 3.125 46.6294 3.295 47.1394 3.635C47.6594 3.975 47.9194 4.475 47.9194 5.135C47.9194 5.775 47.6744 6.27 47.1844 6.62C46.6944 6.96 46.0494 7.13 45.2494 7.13L45.4594 6.815C46.3994 6.815 47.0894 6.99 47.5294 7.34C47.9694 7.69 48.1894 8.195 48.1894 8.855C48.1894 9.535 47.9394 10.065 47.4394 10.445C46.9494 10.815 46.1844 11 45.1444 11H41.5594ZM42.5944 10.16H45.0994C45.7694 10.16 46.2744 10.055 46.6144 9.845C46.9644 9.625 47.1394 9.275 47.1394 8.795C47.1394 8.315 46.9844 7.965 46.6744 7.745C46.3644 7.525 45.8744 7.415 45.2044 7.415H42.5944V10.16ZM42.5944 6.62H44.9644C45.5744 6.62 46.0394 6.505 46.3594 6.275C46.6894 6.045 46.8544 5.71 46.8544 5.27C46.8544 4.83 46.6894 4.5 46.3594 4.28C46.0394 4.06 45.5744 3.95 44.9644 3.95H42.5944V6.62ZM58.3654 11V3.125H59.4304V11H58.3654ZM54.0004 5.9C54.9904 5.91 55.7454 6.13 56.2654 6.56C56.7854 6.99 57.0454 7.61 57.0454 8.42C57.0454 9.26 56.7654 9.905 56.2054 10.355C55.6454 10.805 54.8454 11.025 53.8054 11.015L50.6854 11V3.125H51.7504V5.87L54.0004 5.9ZM53.7304 10.205C54.4704 10.215 55.0254 10.07 55.3954 9.77C55.7754 9.46 55.9654 9.01 55.9654 8.42C55.9654 7.83 55.7804 7.4 55.4104 7.13C55.0404 6.85 54.4804 6.705 53.7304 6.695L51.7504 6.665V10.175L53.7304 10.205ZM66.5235 13.985C66.1535 13.985 65.7985 13.925 65.4585 13.805C65.1285 13.685 64.8435 13.505 64.6035 13.265L65.0985 12.47C65.2985 12.66 65.5135 12.805 65.7435 12.905C65.9835 13.015 66.2485 13.07 66.5385 13.07C66.8885 13.07 67.1885 12.97 67.4385 12.77C67.6985 12.58 67.9435 12.24 68.1735 11.75L68.6835 10.595L68.8035 10.43L72.0435 3.125H73.0935L69.1485 11.945C68.9285 12.455 68.6835 12.86 68.4135 13.16C68.1535 13.46 67.8685 13.67 67.5585 13.79C67.2485 13.92 66.9035 13.985 66.5235 13.985ZM68.6235 11.225L64.9935 3.125H66.1035L69.3135 10.355L68.6235 11.225ZM83.6437 11L80.9437 7.1L81.8287 6.575L84.9187 11H83.6437ZM79.1737 7.49V6.575H81.6637V7.49H79.1737ZM81.9337 7.175L80.9137 7.025L83.5387 3.125H84.6937L81.9337 7.175ZM74.3137 11H73.0387L76.1287 6.575L76.9987 7.1L74.3137 11ZM79.5037 11H78.4387V3.125H79.5037V11ZM78.7687 7.49H76.2937V6.575H78.7687V7.49ZM76.0387 7.175L73.2637 3.125H74.4187L77.0287 7.025L76.0387 7.175ZM89.7879 11.075C88.9679 11.075 88.2479 10.905 87.6279 10.565C87.0079 10.215 86.5229 9.74 86.1729 9.14C85.8229 8.53 85.6479 7.835 85.6479 7.055C85.6479 6.275 85.8129 5.585 86.1429 4.985C86.4829 4.385 86.9429 3.915 87.5229 3.575C88.1129 3.225 88.7729 3.05 89.5029 3.05C90.2429 3.05 90.8979 3.22 91.4679 3.56C92.0479 3.89 92.5029 4.36 92.8329 4.97C93.1629 5.57 93.3279 6.265 93.3279 7.055C93.3279 7.105 93.3229 7.16 93.3129 7.22C93.3129 7.27 93.3129 7.325 93.3129 7.385H86.4579V6.59H92.7429L92.3229 6.905C92.3229 6.335 92.1979 5.83 91.9479 5.39C91.7079 4.94 91.3779 4.59 90.9579 4.34C90.5379 4.09 90.0529 3.965 89.5029 3.965C88.9629 3.965 88.4779 4.09 88.0479 4.34C87.6179 4.59 87.2829 4.94 87.0429 5.39C86.8029 5.84 86.6829 6.355 86.6829 6.935V7.1C86.6829 7.7 86.8129 8.23 87.0729 8.69C87.3429 9.14 87.7129 9.495 88.1829 9.755C88.6629 10.005 89.2079 10.13 89.8179 10.13C90.2979 10.13 90.7429 10.045 91.1529 9.875C91.5729 9.705 91.9329 9.445 92.2329 9.095L92.8329 9.785C92.4829 10.205 92.0429 10.525 91.5129 10.745C90.9929 10.965 90.4179 11.075 89.7879 11.075ZM101.726 11.09C101.156 11.09 100.591 11.01 100.031 10.85C99.4712 10.69 98.9762 10.445 98.5462 10.115L98.8912 9.32C99.2712 9.6 99.7112 9.815 100.211 9.965C100.711 10.105 101.206 10.175 101.696 10.175C102.186 10.165 102.611 10.095 102.971 9.965C103.331 9.835 103.611 9.655 103.811 9.425C104.011 9.195 104.111 8.935 104.111 8.645C104.111 8.225 103.921 7.9 103.541 7.67C103.161 7.43 102.641 7.31 101.981 7.31H100.631V6.53H101.906C102.296 6.53 102.641 6.48 102.941 6.38C103.241 6.28 103.471 6.135 103.631 5.945C103.801 5.755 103.886 5.53 103.886 5.27C103.886 4.99 103.786 4.75 103.586 4.55C103.396 4.35 103.131 4.2 102.791 4.1C102.451 4 102.066 3.95 101.636 3.95C101.246 3.96 100.841 4.02 100.421 4.13C100.001 4.23 99.5862 4.385 99.1762 4.595L98.8762 3.77C99.3362 3.53 99.7912 3.35 100.241 3.23C100.701 3.1 101.161 3.035 101.621 3.035C102.251 3.015 102.816 3.09 103.316 3.26C103.826 3.43 104.231 3.675 104.531 3.995C104.831 4.305 104.981 4.68 104.981 5.12C104.981 5.51 104.861 5.85 104.621 6.14C104.381 6.43 104.061 6.655 103.661 6.815C103.261 6.975 102.806 7.055 102.296 7.055L102.341 6.77C103.241 6.77 103.941 6.945 104.441 7.295C104.951 7.645 105.206 8.12 105.206 8.72C105.206 9.19 105.051 9.605 104.741 9.965C104.431 10.315 104.011 10.59 103.481 10.79C102.961 10.99 102.376 11.09 101.726 11.09ZM112.514 11V9.26L112.469 8.975V6.065C112.469 5.395 112.279 4.88 111.899 4.52C111.529 4.16 110.974 3.98 110.234 3.98C109.724 3.98 109.239 4.065 108.779 4.235C108.319 4.405 107.929 4.63 107.609 4.91L107.129 4.115C107.529 3.775 108.009 3.515 108.569 3.335C109.129 3.145 109.719 3.05 110.339 3.05C111.359 3.05 112.144 3.305 112.694 3.815C113.254 4.315 113.534 5.08 113.534 6.11V11H112.514ZM109.799 11.075C109.209 11.075 108.694 10.98 108.254 10.79C107.824 10.59 107.494 10.32 107.264 9.98C107.034 9.63 106.919 9.23 106.919 8.78C106.919 8.37 107.014 8 107.204 7.67C107.404 7.33 107.724 7.06 108.164 6.86C108.614 6.65 109.214 6.545 109.964 6.545H112.679V7.34H109.994C109.234 7.34 108.704 7.475 108.404 7.745C108.114 8.015 107.969 8.35 107.969 8.75C107.969 9.2 108.144 9.56 108.494 9.83C108.844 10.1 109.334 10.235 109.964 10.235C110.564 10.235 111.079 10.1 111.509 9.83C111.949 9.55 112.269 9.15 112.469 8.63L112.709 9.365C112.509 9.885 112.159 10.3 111.659 10.61C111.169 10.92 110.549 11.075 109.799 11.075ZM120.434 11.075C119.754 11.075 119.139 10.92 118.589 10.61C118.039 10.29 117.599 9.835 117.269 9.245C116.949 8.645 116.789 7.915 116.789 7.055C116.789 6.195 116.949 5.47 117.269 4.88C117.589 4.28 118.024 3.825 118.574 3.515C119.124 3.205 119.744 3.05 120.434 3.05C121.184 3.05 121.854 3.22 122.444 3.56C123.044 3.89 123.514 4.36 123.854 4.97C124.194 5.57 124.364 6.265 124.364 7.055C124.364 7.855 124.194 8.555 123.854 9.155C123.514 9.755 123.044 10.225 122.444 10.565C121.854 10.905 121.184 11.075 120.434 11.075ZM116.369 13.91V3.125H117.389V5.495L117.284 7.07L117.434 8.66V13.91H116.369ZM120.359 10.13C120.919 10.13 121.419 10.005 121.859 9.755C122.299 9.495 122.649 9.135 122.909 8.675C123.169 8.205 123.299 7.665 123.299 7.055C123.299 6.445 123.169 5.91 122.909 5.45C122.649 4.99 122.299 4.63 121.859 4.37C121.419 4.11 120.919 3.98 120.359 3.98C119.799 3.98 119.294 4.11 118.844 4.37C118.404 4.63 118.054 4.99 117.794 5.45C117.544 5.91 117.419 6.445 117.419 7.055C117.419 7.665 117.544 8.205 117.794 8.675C118.054 9.135 118.404 9.495 118.844 9.755C119.294 10.005 119.799 10.13 120.359 10.13ZM130.027 11.075C129.207 11.075 128.487 10.905 127.867 10.565C127.247 10.215 126.762 9.74 126.412 9.14C126.062 8.53 125.887 7.835 125.887 7.055C125.887 6.275 126.052 5.585 126.382 4.985C126.722 4.385 127.182 3.915 127.762 3.575C128.352 3.225 129.012 3.05 129.742 3.05C130.482 3.05 131.137 3.22 131.707 3.56C132.287 3.89 132.742 4.36 133.072 4.97C133.402 5.57 133.567 6.265 133.567 7.055C133.567 7.105 133.562 7.16 133.552 7.22C133.552 7.27 133.552 7.325 133.552 7.385H126.697V6.59H132.982L132.562 6.905C132.562 6.335 132.437 5.83 132.187 5.39C131.947 4.94 131.617 4.59 131.197 4.34C130.777 4.09 130.292 3.965 129.742 3.965C129.202 3.965 128.717 4.09 128.287 4.34C127.857 4.59 127.522 4.94 127.282 5.39C127.042 5.84 126.922 6.355 126.922 6.935V7.1C126.922 7.7 127.052 8.23 127.312 8.69C127.582 9.14 127.952 9.495 128.422 9.755C128.902 10.005 129.447 10.13 130.057 10.13C130.537 10.13 130.982 10.045 131.392 9.875C131.812 9.705 132.172 9.445 132.472 9.095L133.072 9.785C132.722 10.205 132.282 10.525 131.752 10.745C131.232 10.965 130.657 11.075 130.027 11.075ZM135.925 11V3.125H141.505V4.055H136.72L136.99 3.785V11H135.925ZM143.044 11V3.125H144.109V9.38L149.374 3.125H150.319V11H149.254V4.73L144.004 11H143.044ZM156.671 11.075C155.891 11.075 155.191 10.905 154.571 10.565C153.961 10.215 153.481 9.74 153.131 9.14C152.781 8.53 152.606 7.835 152.606 7.055C152.606 6.265 152.781 5.57 153.131 4.97C153.481 4.37 153.961 3.9 154.571 3.56C155.191 3.22 155.891 3.05 156.671 3.05C157.341 3.05 157.946 3.18 158.486 3.44C159.026 3.7 159.451 4.09 159.761 4.61L158.966 5.15C158.696 4.75 158.361 4.455 157.961 4.265C157.561 4.075 157.126 3.98 156.656 3.98C156.096 3.98 155.591 4.11 155.141 4.37C154.691 4.62 154.336 4.975 154.076 5.435C153.816 5.895 153.686 6.435 153.686 7.055C153.686 7.675 153.816 8.215 154.076 8.675C154.336 9.135 154.691 9.495 155.141 9.755C155.591 10.005 156.096 10.13 156.656 10.13C157.126 10.13 157.561 10.035 157.961 9.845C158.361 9.655 158.696 9.365 158.966 8.975L159.761 9.515C159.451 10.025 159.026 10.415 158.486 10.685C157.946 10.945 157.341 11.075 156.671 11.075ZM163.177 11V3.77L163.447 4.055H160.192V3.125H167.227V4.055H163.972L164.242 3.77V11H163.177ZM172.831 11.075C172.151 11.075 171.536 10.92 170.986 10.61C170.436 10.29 169.996 9.835 169.666 9.245C169.346 8.645 169.186 7.915 169.186 7.055C169.186 6.195 169.346 5.47 169.666 4.88C169.986 4.28 170.421 3.825 170.971 3.515C171.521 3.205 172.141 3.05 172.831 3.05C173.581 3.05 174.251 3.22 174.841 3.56C175.441 3.89 175.911 4.36 176.251 4.97C176.591 5.57 176.761 6.265 176.761 7.055C176.761 7.855 176.591 8.555 176.251 9.155C175.911 9.755 175.441 10.225 174.841 10.565C174.251 10.905 173.581 11.075 172.831 11.075ZM168.766 13.91V3.125H169.786V5.495L169.681 7.07L169.831 8.66V13.91H168.766ZM172.756 10.13C173.316 10.13 173.816 10.005 174.256 9.755C174.696 9.495 175.046 9.135 175.306 8.675C175.566 8.205 175.696 7.665 175.696 7.055C175.696 6.445 175.566 5.91 175.306 5.45C175.046 4.99 174.696 4.63 174.256 4.37C173.816 4.11 173.316 3.98 172.756 3.98C172.196 3.98 171.691 4.11 171.241 4.37C170.801 4.63 170.451 4.99 170.191 5.45C169.941 5.91 169.816 6.445 169.816 7.055C169.816 7.665 169.941 8.205 170.191 8.675C170.451 9.135 170.801 9.495 171.241 9.755C171.691 10.005 172.196 10.13 172.756 10.13ZM179.05 11V3.125H180.115V9.38L185.38 3.125H186.325V11H185.26V4.73L180.01 11H179.05ZM193.442 11.075C192.762 11.075 192.147 10.92 191.597 10.61C191.047 10.29 190.607 9.835 190.277 9.245C189.957 8.645 189.797 7.915 189.797 7.055C189.797 6.195 189.957 5.47 190.277 4.88C190.597 4.28 191.032 3.825 191.582 3.515C192.132 3.205 192.752 3.05 193.442 3.05C194.192 3.05 194.862 3.22 195.452 3.56C196.052 3.89 196.522 4.36 196.862 4.97C197.202 5.57 197.372 6.265 197.372 7.055C197.372 7.855 197.202 8.555 196.862 9.155C196.522 9.755 196.052 10.225 195.452 10.565C194.862 10.905 194.192 11.075 193.442 11.075ZM189.377 13.91V3.125H190.397V5.495L190.292 7.07L190.442 8.66V13.91H189.377ZM193.367 10.13C193.927 10.13 194.427 10.005 194.867 9.755C195.307 9.495 195.657 9.135 195.917 8.675C196.177 8.205 196.307 7.665 196.307 7.055C196.307 6.445 196.177 5.91 195.917 5.45C195.657 4.99 195.307 4.63 194.867 4.37C194.427 4.11 193.927 3.98 193.367 3.98C192.807 3.98 192.302 4.11 191.852 4.37C191.412 4.63 191.062 4.99 190.802 5.45C190.552 5.91 190.427 6.445 190.427 7.055C190.427 7.665 190.552 8.205 190.802 8.675C191.062 9.135 191.412 9.495 191.852 9.755C192.302 10.005 192.807 10.13 193.367 10.13ZM202.9 11.075C202.14 11.075 201.455 10.905 200.845 10.565C200.245 10.215 199.77 9.74 199.42 9.14C199.07 8.53 198.895 7.835 198.895 7.055C198.895 6.265 199.07 5.57 199.42 4.97C199.77 4.37 200.245 3.9 200.845 3.56C201.445 3.22 202.13 3.05 202.9 3.05C203.68 3.05 204.37 3.22 204.97 3.56C205.58 3.9 206.055 4.37 206.395 4.97C206.745 5.57 206.92 6.265 206.92 7.055C206.92 7.835 206.745 8.53 206.395 9.14C206.055 9.74 205.58 10.215 204.97 10.565C204.36 10.905 203.67 11.075 202.9 11.075ZM202.9 10.13C203.47 10.13 203.975 10.005 204.415 9.755C204.855 9.495 205.2 9.135 205.45 8.675C205.71 8.205 205.84 7.665 205.84 7.055C205.84 6.435 205.71 5.895 205.45 5.435C205.2 4.975 204.855 4.62 204.415 4.37C203.975 4.11 203.475 3.98 202.915 3.98C202.355 3.98 201.855 4.11 201.415 4.37C200.975 4.62 200.625 4.975 200.365 5.435C200.105 5.895 199.975 6.435 199.975 7.055C199.975 7.665 200.105 8.205 200.365 8.675C200.625 9.135 200.975 9.495 201.415 9.755C201.855 10.005 202.35 10.13 202.9 10.13ZM209.196 11V3.125H212.676C213.566 3.125 214.266 3.295 214.776 3.635C215.296 3.975 215.556 4.475 215.556 5.135C215.556 5.775 215.311 6.27 214.821 6.62C214.331 6.96 213.686 7.13 212.886 7.13L213.096 6.815C214.036 6.815 214.726 6.99 215.166 7.34C215.606 7.69 215.826 8.195 215.826 8.855C215.826 9.535 215.576 10.065 215.076 10.445C214.586 10.815 213.821 11 212.781 11H209.196ZM210.231 10.16H212.736C213.406 10.16 213.911 10.055 214.251 9.845C214.601 9.625 214.776 9.275 214.776 8.795C214.776 8.315 214.621 7.965 214.311 7.745C214.001 7.525 213.511 7.415 212.841 7.415H210.231V10.16ZM210.231 6.62H212.601C213.211 6.62 213.676 6.505 213.996 6.275C214.326 6.045 214.491 5.71 214.491 5.27C214.491 4.83 214.326 4.5 213.996 4.28C213.676 4.06 213.211 3.95 212.601 3.95H210.231V6.62ZM223.212 11V9.26L223.167 8.975V6.065C223.167 5.395 222.977 4.88 222.597 4.52C222.227 4.16 221.672 3.98 220.932 3.98C220.422 3.98 219.937 4.065 219.477 4.235C219.017 4.405 218.627 4.63 218.307 4.91L217.827 4.115C218.227 3.775 218.707 3.515 219.267 3.335C219.827 3.145 220.417 3.05 221.037 3.05C222.057 3.05 222.842 3.305 223.392 3.815C223.952 4.315 224.232 5.08 224.232 6.11V11H223.212ZM220.497 11.075C219.907 11.075 219.392 10.98 218.952 10.79C218.522 10.59 218.192 10.32 217.962 9.98C217.732 9.63 217.617 9.23 217.617 8.78C217.617 8.37 217.712 8 217.902 7.67C218.102 7.33 218.422 7.06 218.862 6.86C219.312 6.65 219.912 6.545 220.662 6.545H223.377V7.34H220.692C219.932 7.34 219.402 7.475 219.102 7.745C218.812 8.015 218.667 8.35 218.667 8.75C218.667 9.2 218.842 9.56 219.192 9.83C219.542 10.1 220.032 10.235 220.662 10.235C221.262 10.235 221.777 10.1 222.207 9.83C222.647 9.55 222.967 9.15 223.167 8.63L223.407 9.365C223.207 9.885 222.857 10.3 222.357 10.61C221.867 10.92 221.247 11.075 220.497 11.075ZM227.067 11V3.125H228.132V6.605H233.097V3.125H234.162V11H233.097V7.52H228.132V11H227.067ZM244.869 11V3.125H245.934V11H244.869ZM240.504 5.9C241.494 5.91 242.249 6.13 242.769 6.56C243.289 6.99 243.549 7.61 243.549 8.42C243.549 9.26 243.269 9.905 242.709 10.355C242.149 10.805 241.349 11.025 240.309 11.015L237.189 11V3.125H238.254V5.87L240.504 5.9ZM240.234 10.205C240.974 10.215 241.529 10.07 241.899 9.77C242.279 9.46 242.469 9.01 242.469 8.42C242.469 7.83 242.284 7.4 241.914 7.13C241.544 6.85 240.984 6.705 240.234 6.695L238.254 6.665V10.175L240.234 10.205ZM248.292 13.19L248.952 10.415L249.072 11.06C248.842 11.06 248.647 10.985 248.487 10.835C248.337 10.685 248.262 10.49 248.262 10.25C248.262 10.01 248.337 9.815 248.487 9.665C248.647 9.515 248.837 9.44 249.057 9.44C249.287 9.44 249.472 9.52 249.612 9.68C249.762 9.84 249.837 10.03 249.837 10.25C249.837 10.33 249.832 10.41 249.822 10.49C249.812 10.57 249.792 10.66 249.762 10.76C249.732 10.86 249.692 10.98 249.642 11.12L249.012 13.19H248.292ZM63.2372 29V27.38L63.1322 27.035V24.2C63.1322 23.65 62.9672 23.225 62.6372 22.925C62.3072 22.615 61.8072 22.46 61.1372 22.46C60.6872 22.46 60.2422 22.53 59.8022 22.67C59.3722 22.81 59.0072 23.005 58.7072 23.255L57.9722 21.89C58.4022 21.56 58.9122 21.315 59.5022 21.155C60.1022 20.985 60.7222 20.9 61.3622 20.9C62.5222 20.9 63.4172 21.18 64.0472 21.74C64.6872 22.29 65.0072 23.145 65.0072 24.305V29H63.2372ZM60.7172 29.105C60.1172 29.105 59.5922 29.005 59.1422 28.805C58.6922 28.595 58.3422 28.31 58.0922 27.95C57.8522 27.58 57.7322 27.165 57.7322 26.705C57.7322 26.255 57.8372 25.85 58.0472 25.49C58.2672 25.13 58.6222 24.845 59.1122 24.635C59.6022 24.425 60.2522 24.32 61.0622 24.32H63.3872V25.565H61.1972C60.5572 25.565 60.1272 25.67 59.9072 25.88C59.6872 26.08 59.5772 26.33 59.5772 26.63C59.5772 26.97 59.7122 27.24 59.9822 27.44C60.2522 27.64 60.6272 27.74 61.1072 27.74C61.5672 27.74 61.9772 27.635 62.3372 27.425C62.7072 27.215 62.9722 26.905 63.1322 26.495L63.4472 27.62C63.2672 28.09 62.9422 28.455 62.4722 28.715C62.0122 28.975 61.4272 29.105 60.7172 29.105ZM67.3274 29V20.99H71.2424C72.2124 20.99 72.9724 21.17 73.5224 21.53C74.0824 21.89 74.3624 22.4 74.3624 23.06C74.3624 23.71 74.1024 24.22 73.5824 24.59C73.0624 24.95 72.3724 25.13 71.5124 25.13L71.7374 24.665C72.7074 24.665 73.4274 24.845 73.8974 25.205C74.3774 25.555 74.6174 26.07 74.6174 26.75C74.6174 27.46 74.3524 28.015 73.8224 28.415C73.2924 28.805 72.4874 29 71.4074 29H67.3274ZM69.1124 27.635H71.2574C71.7674 27.635 72.1524 27.555 72.4124 27.395C72.6724 27.225 72.8024 26.97 72.8024 26.63C72.8024 26.27 72.6824 26.005 72.4424 25.835C72.2024 25.665 71.8274 25.58 71.3174 25.58H69.1124V27.635ZM69.1124 24.335H71.0774C71.5574 24.335 71.9174 24.25 72.1574 24.08C72.4074 23.9 72.5324 23.65 72.5324 23.33C72.5324 23 72.4074 22.755 72.1574 22.595C71.9174 22.435 71.5574 22.355 71.0774 22.355H69.1124V24.335ZM78.2795 29V22.13L78.7145 22.58H75.4595V20.99H82.9595V22.58H79.7195L80.1545 22.13V29H78.2795ZM87.538 29.105C86.718 29.105 85.988 28.93 85.348 28.58C84.708 28.22 84.203 27.73 83.833 27.11C83.463 26.49 83.278 25.785 83.278 24.995C83.278 24.195 83.463 23.49 83.833 22.88C84.203 22.26 84.708 21.775 85.348 21.425C85.988 21.075 86.718 20.9 87.538 20.9C88.368 20.9 89.103 21.075 89.743 21.425C90.393 21.775 90.898 22.255 91.258 22.865C91.628 23.475 91.813 24.185 91.813 24.995C91.813 25.785 91.628 26.49 91.258 27.11C90.898 27.73 90.393 28.22 89.743 28.58C89.103 28.93 88.368 29.105 87.538 29.105ZM87.538 27.5C87.998 27.5 88.408 27.4 88.768 27.2C89.128 27 89.408 26.71 89.608 26.33C89.818 25.95 89.923 25.505 89.923 24.995C89.923 24.475 89.818 24.03 89.608 23.66C89.408 23.28 89.128 22.99 88.768 22.79C88.408 22.59 88.003 22.49 87.553 22.49C87.093 22.49 86.683 22.59 86.323 22.79C85.973 22.99 85.693 23.28 85.483 23.66C85.273 24.03 85.168 24.475 85.168 24.995C85.168 25.505 85.273 25.95 85.483 26.33C85.693 26.71 85.973 27 86.323 27.2C86.683 27.4 87.088 27.5 87.538 27.5ZM98.1053 29.105C97.4553 29.105 96.8603 28.955 96.3203 28.655C95.7903 28.355 95.3653 27.905 95.0453 27.305C94.7353 26.695 94.5803 25.925 94.5803 24.995C94.5803 24.055 94.7303 23.285 95.0303 22.685C95.3403 22.085 95.7603 21.64 96.2903 21.35C96.8203 21.05 97.4253 20.9 98.1053 20.9C98.8953 20.9 99.5903 21.07 100.19 21.41C100.8 21.75 101.28 22.225 101.63 22.835C101.99 23.445 102.17 24.165 102.17 24.995C102.17 25.825 101.99 26.55 101.63 27.17C101.28 27.78 100.8 28.255 100.19 28.595C99.5903 28.935 98.8953 29.105 98.1053 29.105ZM93.6653 31.91V20.99H95.4503V22.88L95.3903 25.01L95.5403 27.14V31.91H93.6653ZM97.8953 27.5C98.3453 27.5 98.7453 27.4 99.0953 27.2C99.4553 27 99.7403 26.71 99.9503 26.33C100.16 25.95 100.265 25.505 100.265 24.995C100.265 24.475 100.16 24.03 99.9503 23.66C99.7403 23.28 99.4553 22.99 99.0953 22.79C98.7453 22.59 98.3453 22.49 97.8953 22.49C97.4453 22.49 97.0403 22.59 96.6803 22.79C96.3203 22.99 96.0353 23.28 95.8253 23.66C95.6153 24.03 95.5103 24.475 95.5103 24.995C95.5103 25.505 95.6153 25.95 95.8253 26.33C96.0353 26.71 96.3203 27 96.6803 27.2C97.0403 27.4 97.4453 27.5 97.8953 27.5ZM104.036 29V20.99H105.911V26.27L110.336 20.99H112.046V29H110.171V23.72L105.761 29H104.036ZM117.001 29.135C116.391 29.135 115.786 29.065 115.186 28.925C114.596 28.775 114.061 28.565 113.581 28.295L114.106 26.9C114.496 27.12 114.936 27.29 115.426 27.41C115.916 27.53 116.406 27.59 116.896 27.59C117.316 27.59 117.676 27.55 117.976 27.47C118.276 27.38 118.506 27.25 118.666 27.08C118.836 26.91 118.921 26.715 118.921 26.495C118.921 26.175 118.781 25.935 118.501 25.775C118.231 25.605 117.841 25.52 117.331 25.52H115.786V24.26H117.181C117.501 24.26 117.771 24.225 117.991 24.155C118.221 24.085 118.396 23.98 118.516 23.84C118.636 23.7 118.696 23.535 118.696 23.345C118.696 23.155 118.621 22.99 118.471 22.85C118.331 22.7 118.126 22.59 117.856 22.52C117.586 22.44 117.261 22.4 116.881 22.4C116.481 22.4 116.066 22.45 115.636 22.55C115.216 22.65 114.786 22.795 114.346 22.985L113.866 21.605C114.376 21.375 114.871 21.2 115.351 21.08C115.841 20.95 116.326 20.88 116.806 20.87C117.536 20.84 118.186 20.915 118.756 21.095C119.326 21.275 119.776 21.535 120.106 21.875C120.436 22.215 120.601 22.615 120.601 23.075C120.601 23.455 120.481 23.8 120.241 24.11C120.011 24.41 119.691 24.645 119.281 24.815C118.881 24.985 118.421 25.07 117.901 25.07L117.961 24.665C118.851 24.665 119.551 24.845 120.061 25.205C120.571 25.555 120.826 26.035 120.826 26.645C120.826 27.135 120.661 27.57 120.331 27.95C120.001 28.32 119.546 28.61 118.966 28.82C118.396 29.03 117.741 29.135 117.001 29.135ZM122.757 29V20.99H124.632V26.27L129.057 20.99H130.767V29H128.892V23.72L124.482 29H122.757ZM137.729 29.105C137.079 29.105 136.484 28.955 135.944 28.655C135.414 28.355 134.989 27.905 134.669 27.305C134.359 26.695 134.204 25.925 134.204 24.995C134.204 24.055 134.354 23.285 134.654 22.685C134.964 22.085 135.384 21.64 135.914 21.35C136.444 21.05 137.049 20.9 137.729 20.9C138.519 20.9 139.214 21.07 139.814 21.41C140.424 21.75 140.904 22.225 141.254 22.835C141.614 23.445 141.794 24.165 141.794 24.995C141.794 25.825 141.614 26.55 141.254 27.17C140.904 27.78 140.424 28.255 139.814 28.595C139.214 28.935 138.519 29.105 137.729 29.105ZM133.289 31.91V20.99H135.074V22.88L135.014 25.01L135.164 27.14V31.91H133.289ZM137.519 27.5C137.969 27.5 138.369 27.4 138.719 27.2C139.079 27 139.364 26.71 139.574 26.33C139.784 25.95 139.889 25.505 139.889 24.995C139.889 24.475 139.784 24.03 139.574 23.66C139.364 23.28 139.079 22.99 138.719 22.79C138.369 22.59 137.969 22.49 137.519 22.49C137.069 22.49 136.664 22.59 136.304 22.79C135.944 22.99 135.659 23.28 135.449 23.66C135.239 24.03 135.134 24.475 135.134 24.995C135.134 25.505 135.239 25.95 135.449 26.33C135.659 26.71 135.944 27 136.304 27.2C136.664 27.4 137.069 27.5 137.519 27.5ZM144.161 32.015C143.771 32.015 143.381 31.95 142.991 31.82C142.601 31.69 142.276 31.51 142.016 31.28L142.766 29.9C142.956 30.07 143.171 30.205 143.411 30.305C143.651 30.405 143.896 30.455 144.146 30.455C144.486 30.455 144.761 30.37 144.971 30.2C145.181 30.03 145.376 29.745 145.556 29.345L146.021 28.295L146.171 28.07L149.201 20.99H151.001L147.251 29.645C147.001 30.245 146.721 30.72 146.411 31.07C146.111 31.42 145.771 31.665 145.391 31.805C145.021 31.945 144.611 32.015 144.161 32.015ZM145.811 29.285L142.196 20.99H144.146L147.086 27.905L145.811 29.285ZM152.303 29V20.99H154.178V26.27L158.603 20.99H160.313V29H158.438V23.72L154.028 29H152.303ZM156.188 20.045C155.388 20.045 154.773 19.86 154.343 19.49C153.913 19.11 153.693 18.56 153.683 17.84H154.928C154.938 18.2 155.048 18.485 155.258 18.695C155.478 18.905 155.783 19.01 156.173 19.01C156.553 19.01 156.853 18.905 157.073 18.695C157.303 18.485 157.423 18.2 157.433 17.84H158.708C158.698 18.56 158.473 19.11 158.033 19.49C157.603 19.86 156.988 20.045 156.188 20.045ZM164.5 29V22.13L164.935 22.58H161.68V20.99H169.18V22.58H165.94L166.375 22.13V29H164.5ZM173.924 29.105C173.034 29.105 172.254 28.93 171.584 28.58C170.924 28.22 170.409 27.73 170.039 27.11C169.679 26.49 169.499 25.785 169.499 24.995C169.499 24.195 169.674 23.49 170.024 22.88C170.384 22.26 170.874 21.775 171.494 21.425C172.124 21.075 172.839 20.9 173.639 20.9C174.419 20.9 175.114 21.07 175.724 21.41C176.334 21.75 176.814 22.23 177.164 22.85C177.514 23.47 177.689 24.2 177.689 25.04C177.689 25.12 177.684 25.21 177.674 25.31C177.674 25.41 177.669 25.505 177.659 25.595H170.984V24.35H176.669L175.934 24.74C175.944 24.28 175.849 23.875 175.649 23.525C175.449 23.175 175.174 22.9 174.824 22.7C174.484 22.5 174.089 22.4 173.639 22.4C173.179 22.4 172.774 22.5 172.424 22.7C172.084 22.9 171.814 23.18 171.614 23.54C171.424 23.89 171.329 24.305 171.329 24.785V25.085C171.329 25.565 171.439 25.99 171.659 26.36C171.879 26.73 172.189 27.015 172.589 27.215C172.989 27.415 173.449 27.515 173.969 27.515C174.419 27.515 174.824 27.445 175.184 27.305C175.544 27.165 175.864 26.945 176.144 26.645L177.149 27.8C176.789 28.22 176.334 28.545 175.784 28.775C175.244 28.995 174.624 29.105 173.924 29.105ZM183.384 29.105C182.544 29.105 181.794 28.93 181.134 28.58C180.484 28.22 179.974 27.73 179.604 27.11C179.234 26.49 179.049 25.785 179.049 24.995C179.049 24.195 179.234 23.49 179.604 22.88C179.974 22.26 180.484 21.775 181.134 21.425C181.794 21.075 182.544 20.9 183.384 20.9C184.164 20.9 184.849 21.06 185.439 21.38C186.039 21.69 186.494 22.15 186.804 22.76L185.364 23.6C185.124 23.22 184.829 22.94 184.479 22.76C184.139 22.58 183.769 22.49 183.369 22.49C182.909 22.49 182.494 22.59 182.124 22.79C181.754 22.99 181.464 23.28 181.254 23.66C181.044 24.03 180.939 24.475 180.939 24.995C180.939 25.515 181.044 25.965 181.254 26.345C181.464 26.715 181.754 27 182.124 27.2C182.494 27.4 182.909 27.5 183.369 27.5C183.769 27.5 184.139 27.41 184.479 27.23C184.829 27.05 185.124 26.77 185.364 26.39L186.804 27.23C186.494 27.83 186.039 28.295 185.439 28.625C184.849 28.945 184.164 29.105 183.384 29.105ZM192.475 23.63C193.505 23.63 194.29 23.86 194.83 24.32C195.37 24.78 195.64 25.43 195.64 26.27C195.64 27.14 195.34 27.82 194.74 28.31C194.14 28.79 193.295 29.025 192.205 29.015L188.455 29V20.99H190.33V23.615L192.475 23.63ZM192.04 27.635C192.59 27.645 193.01 27.53 193.3 27.29C193.59 27.05 193.735 26.7 193.735 26.24C193.735 25.78 193.59 25.45 193.3 25.25C193.02 25.04 192.6 24.93 192.04 24.92L190.33 24.905V27.62L192.04 27.635Z" fill="black"/>
</svg>
